<svg xmlns="http://www.w3.org/2000/svg" width="1200" height="630" viewBox="0 0 1200 630" role="img" aria-labelledby="t d"><title id="t">Kenneth Cheng — Mathematical models for real systems</title><desc id="d">Editorial research studio identity with a restrained network field</desc><rect width="1200" height="630" fill="#f5f3ed"/><g stroke="#1f6652" stroke-width="3" fill="none" opacity=".65"><path d="M720 110L860 190 1030 120 1110 290 940 360 1080 510 820 500 700 340Z"/><path d="M720 110L940 360M860 190L820 500M1030 120L700 340M1110 290L820 500"/></g><g fill="#a24b32"><circle cx="720" cy="110" r="9"/><circle cx="860" cy="190" r="9"/><circle cx="1030" cy="120" r="9"/><circle cx="1110" cy="290" r="9"/><circle cx="940" cy="360" r="9"/><circle cx="1080" cy="510" r="9"/><circle cx="820" cy="500" r="9"/><circle cx="700" cy="340" r="9"/></g><text x="90" y="190" fill="#18201d" font-family="Georgia,serif" font-size="66">Kenneth Cheng</text><text x="90" y="285" fill="#18201d" font-family="Georgia,serif" font-size="48">Mathematical models</text><text x="90" y="345" fill="#18201d" font-family="Georgia,serif" font-size="48">for real systems.</text><text x="94" y="445" fill="#1f6652" font-family="Arial,sans-serif" font-size="22" letter-spacing="3">RESEARCH · EDUCATION · COMPUTATION</text></svg>
