<svg xmlns="http://www.w3.org/2000/svg" width="515.520pt" height="273.600pt" viewBox="0 0 515.520 273.600">
<title>Local search is not a certificate</title>
<desc>Multistart local incumbents compared with the certified global interval.</desc>
<rect x="0.000" y="0.000" width="515.520" height="273.600" fill="#FFFFFF" stroke="none" stroke-width="0.000"/>
<text x="257.760" y="16.000" fill="#000000" font-family="Arial, Helvetica, sans-serif" font-size="10.000pt" font-weight="700" text-anchor="middle">Multistart local search supplies strong incumbents but no set-wise upper bound</text>
<text x="50.000" y="37.700" fill="#000000" font-family="Arial, Helvetica, sans-serif" font-size="8.700pt" font-weight="700" text-anchor="start">(a) Distance from certified UB</text>
<text x="300.000" y="37.700" fill="#000000" font-family="Arial, Helvetica, sans-serif" font-size="8.700pt" font-weight="700" text-anchor="start">(b) What each output establishes</text>
<line x1="48.000" y1="62.000" x2="48.000" y2="182.000" stroke="#000000" stroke-width="0.800"/>
<line x1="48.000" y1="182.000" x2="253.000" y2="182.000" stroke="#000000" stroke-width="0.800"/>
<line x1="48.000" y1="62.000" x2="48.000" y2="182.000" stroke="#D9D9D9" stroke-width="0.400"/>
<line x1="48.000" y1="182.000" x2="48.000" y2="185.000" stroke="#000000" stroke-width="0.600"/>
<text x="48.000" y="194.000" fill="#000000" font-family="Arial, Helvetica, sans-serif" font-size="7.000pt" font-weight="400" text-anchor="middle">0</text>
<line x1="114.129" y1="62.000" x2="114.129" y2="182.000" stroke="#D9D9D9" stroke-width="0.400"/>
<line x1="114.129" y1="182.000" x2="114.129" y2="185.000" stroke="#000000" stroke-width="0.600"/>
<text x="114.129" y="194.000" fill="#000000" font-family="Arial, Helvetica, sans-serif" font-size="7.000pt" font-weight="400" text-anchor="middle">10</text>
<line x1="180.258" y1="62.000" x2="180.258" y2="182.000" stroke="#D9D9D9" stroke-width="0.400"/>
<line x1="180.258" y1="182.000" x2="180.258" y2="185.000" stroke="#000000" stroke-width="0.600"/>
<text x="180.258" y="194.000" fill="#000000" font-family="Arial, Helvetica, sans-serif" font-size="7.000pt" font-weight="400" text-anchor="middle">20</text>
<line x1="246.387" y1="62.000" x2="246.387" y2="182.000" stroke="#D9D9D9" stroke-width="0.400"/>
<line x1="246.387" y1="182.000" x2="246.387" y2="185.000" stroke="#000000" stroke-width="0.600"/>
<text x="246.387" y="194.000" fill="#000000" font-family="Arial, Helvetica, sans-serif" font-size="7.000pt" font-weight="400" text-anchor="middle">30</text>
<line x1="48.000" y1="166.000" x2="253.000" y2="166.000" stroke="#D9D9D9" stroke-width="0.400"/>
<line x1="45.000" y1="166.000" x2="48.000" y2="166.000" stroke="#000000" stroke-width="0.600"/>
<text x="43.000" y="169.000" fill="#000000" font-family="Arial, Helvetica, sans-serif" font-size="7.000pt" font-weight="400" text-anchor="end">-6</text>
<line x1="48.000" y1="134.000" x2="253.000" y2="134.000" stroke="#D9D9D9" stroke-width="0.400"/>
<line x1="45.000" y1="134.000" x2="48.000" y2="134.000" stroke="#000000" stroke-width="0.600"/>
<text x="43.000" y="137.000" fill="#000000" font-family="Arial, Helvetica, sans-serif" font-size="7.000pt" font-weight="400" text-anchor="end">-4</text>
<line x1="48.000" y1="102.000" x2="253.000" y2="102.000" stroke="#D9D9D9" stroke-width="0.400"/>
<line x1="45.000" y1="102.000" x2="48.000" y2="102.000" stroke="#000000" stroke-width="0.600"/>
<text x="43.000" y="105.000" fill="#000000" font-family="Arial, Helvetica, sans-serif" font-size="7.000pt" font-weight="400" text-anchor="end">-2</text>
<line x1="48.000" y1="70.000" x2="253.000" y2="70.000" stroke="#D9D9D9" stroke-width="0.400"/>
<line x1="45.000" y1="70.000" x2="48.000" y2="70.000" stroke="#000000" stroke-width="0.600"/>
<text x="43.000" y="73.000" fill="#000000" font-family="Arial, Helvetica, sans-serif" font-size="7.000pt" font-weight="400" text-anchor="end">0</text>
<text x="150.500" y="209.000" fill="#000000" font-family="Arial, Helvetica, sans-serif" font-size="8.000pt" font-weight="400" text-anchor="middle">local start index</text>
<text x="48.000" y="57.000" fill="#000000" font-family="Arial, Helvetica, sans-serif" font-size="8.000pt" font-weight="700" text-anchor="start">log10(UB - local value)</text>
<polyline points="48.000,67.331 54.613,67.445 61.226,172.158 67.839,172.158 74.452,67.445 81.065,172.158 87.677,172.158 94.290,66.633 100.903,172.158 107.516,172.158 114.129,172.158 120.742,172.158 127.355,172.158 133.968,172.158 140.581,66.806 147.194,66.824 153.806,67.087 160.419,67.445 167.032,67.096 173.645,67.445 180.258,172.158 186.871,172.158 193.484,66.678 200.097,172.158 206.710,172.158 213.323,172.158 219.935,172.158 226.548,172.158 233.161,172.158 239.774,67.149 246.387,67.445 253.000,172.158" fill="none" stroke="#CC79A7" stroke-width="1.000"/>
<circle cx="48.000" cy="67.331" r="2.000" fill="#CC79A7" stroke="#CC79A7" stroke-width="0.800"/>
<circle cx="54.613" cy="67.445" r="2.000" fill="#CC79A7" stroke="#CC79A7" stroke-width="0.800"/>
<circle cx="61.226" cy="172.158" r="2.000" fill="#CC79A7" stroke="#CC79A7" stroke-width="0.800"/>
<circle cx="67.839" cy="172.158" r="2.000" fill="#CC79A7" stroke="#CC79A7" stroke-width="0.800"/>
<circle cx="74.452" cy="67.445" r="2.000" fill="#CC79A7" stroke="#CC79A7" stroke-width="0.800"/>
<circle cx="81.065" cy="172.158" r="2.000" fill="#CC79A7" stroke="#CC79A7" stroke-width="0.800"/>
<circle cx="87.677" cy="172.158" r="2.000" fill="#CC79A7" stroke="#CC79A7" stroke-width="0.800"/>
<circle cx="94.290" cy="66.633" r="2.000" fill="#CC79A7" stroke="#CC79A7" stroke-width="0.800"/>
<circle cx="100.903" cy="172.158" r="2.000" fill="#CC79A7" stroke="#CC79A7" stroke-width="0.800"/>
<circle cx="107.516" cy="172.158" r="2.000" fill="#CC79A7" stroke="#CC79A7" stroke-width="0.800"/>
<circle cx="114.129" cy="172.158" r="2.000" fill="#CC79A7" stroke="#CC79A7" stroke-width="0.800"/>
<circle cx="120.742" cy="172.158" r="2.000" fill="#CC79A7" stroke="#CC79A7" stroke-width="0.800"/>
<circle cx="127.355" cy="172.158" r="2.000" fill="#CC79A7" stroke="#CC79A7" stroke-width="0.800"/>
<circle cx="133.968" cy="172.158" r="2.000" fill="#CC79A7" stroke="#CC79A7" stroke-width="0.800"/>
<circle cx="140.581" cy="66.806" r="2.000" fill="#CC79A7" stroke="#CC79A7" stroke-width="0.800"/>
<circle cx="147.194" cy="66.824" r="2.000" fill="#CC79A7" stroke="#CC79A7" stroke-width="0.800"/>
<circle cx="153.806" cy="67.087" r="2.000" fill="#CC79A7" stroke="#CC79A7" stroke-width="0.800"/>
<circle cx="160.419" cy="67.445" r="2.000" fill="#CC79A7" stroke="#CC79A7" stroke-width="0.800"/>
<circle cx="167.032" cy="67.096" r="2.000" fill="#CC79A7" stroke="#CC79A7" stroke-width="0.800"/>
<circle cx="173.645" cy="67.445" r="2.000" fill="#CC79A7" stroke="#CC79A7" stroke-width="0.800"/>
<circle cx="180.258" cy="172.158" r="2.000" fill="#CC79A7" stroke="#CC79A7" stroke-width="0.800"/>
<circle cx="186.871" cy="172.158" r="2.000" fill="#CC79A7" stroke="#CC79A7" stroke-width="0.800"/>
<circle cx="193.484" cy="66.678" r="2.000" fill="#CC79A7" stroke="#CC79A7" stroke-width="0.800"/>
<circle cx="200.097" cy="172.158" r="2.000" fill="#CC79A7" stroke="#CC79A7" stroke-width="0.800"/>
<circle cx="206.710" cy="172.158" r="2.000" fill="#CC79A7" stroke="#CC79A7" stroke-width="0.800"/>
<circle cx="213.323" cy="172.158" r="2.000" fill="#CC79A7" stroke="#CC79A7" stroke-width="0.800"/>
<circle cx="219.935" cy="172.158" r="2.000" fill="#CC79A7" stroke="#CC79A7" stroke-width="0.800"/>
<circle cx="226.548" cy="172.158" r="2.000" fill="#CC79A7" stroke="#CC79A7" stroke-width="0.800"/>
<circle cx="233.161" cy="172.158" r="2.000" fill="#CC79A7" stroke="#CC79A7" stroke-width="0.800"/>
<circle cx="239.774" cy="67.149" r="2.000" fill="#CC79A7" stroke="#CC79A7" stroke-width="0.800"/>
<circle cx="246.387" cy="67.445" r="2.000" fill="#CC79A7" stroke="#CC79A7" stroke-width="0.800"/>
<circle cx="253.000" cy="172.158" r="2.000" fill="#CC79A7" stroke="#CC79A7" stroke-width="0.800"/>
<line x1="48.000" y1="172.151" x2="253.000" y2="172.151" stroke="#D55E00" stroke-width="1.000" stroke-dasharray="4 3"/>
<text x="249.694" y="168.151" fill="#000000" font-family="Arial, Helvetica, sans-serif" font-size="7.000pt" font-weight="400" text-anchor="end">certificate gap</text>
<rect x="286.000" y="58.000" width="202.000" height="51.000" fill="#F3E1EE" stroke="#000000" stroke-width="0.650"/>
<text x="387.000" y="77.100" fill="#000000" font-family="Arial, Helvetica, sans-serif" font-size="8.100pt" font-weight="700" text-anchor="middle">32 projected-gradient starts</text>
<text x="387.000" y="96.200" fill="#000000" font-family="Arial, Helvetica, sans-serif" font-size="7.200pt" font-weight="400" text-anchor="middle">feasible values; no unsampled bound</text>
<rect x="286.000" y="121.000" width="202.000" height="64.000" fill="#D9F0E8" stroke="#000000" stroke-width="0.650"/>
<text x="387.000" y="140.100" fill="#000000" font-family="Arial, Helvetica, sans-serif" font-size="8.100pt" font-weight="700" text-anchor="middle">Deterministic interval B&amp;B</text>
<text x="387.000" y="159.200" fill="#000000" font-family="Arial, Helvetica, sans-serif" font-size="7.200pt" font-weight="400" text-anchor="middle">LB &lt;= max J &lt;= UB; gap 4.126e-07</text>
<text x="257.760" y="221.500" fill="#000000" font-family="Arial, Helvetica, sans-serif" font-size="7.500pt" font-weight="400" text-anchor="middle">19 / 32 starts reached within the certificate width; the others remained far below the optimum.</text>
<text x="257.760" y="249.500" fill="#000000" font-family="Arial, Helvetica, sans-serif" font-size="7.500pt" font-weight="700" text-anchor="middle">Near-agreement is not a certificate without a valid upper bound over the full declared box.</text>
</svg>
