<?xml version="1.0" encoding="utf-8" standalone="no"?>
<!DOCTYPE svg PUBLIC "-//W3C//DTD SVG 1.1//EN"
  "http://www.w3.org/Graphics/SVG/1.1/DTD/svg11.dtd">
<svg xmlns:xlink="http://www.w3.org/1999/xlink" width="425.154073pt" height="272.455297pt" viewBox="0 0 425.154073 272.455297" xmlns="http://www.w3.org/2000/svg" version="1.1">
 <metadata>
  <rdf:RDF xmlns:dc="http://purl.org/dc/elements/1.1/" xmlns:cc="http://creativecommons.org/ns#" xmlns:rdf="http://www.w3.org/1999/02/22-rdf-syntax-ns#">
   <cc:Work>
    <dc:type rdf:resource="http://purl.org/dc/dcmitype/StillImage"/>
    <dc:date>2026-07-15T15:27:10.807977</dc:date>
    <dc:format>image/svg+xml</dc:format>
    <dc:creator>
     <cc:Agent>
      <dc:title>ScienceProject reproducible figure pipeline</dc:title>
     </cc:Agent>
    </dc:creator>
   </cc:Work>
  </rdf:RDF>
 </metadata>
 <defs>
  <style type="text/css">*{stroke-linejoin: round; stroke-linecap: butt}</style>
 </defs>
 <g id="figure_1">
  <g id="patch_1">
   <path d="M 0 272.455297 
L 425.154073 272.455297 
L 425.154073 0 
L 0 0 
z
" style="fill: #ffffff"/>
  </g>
  <g id="axes_1">
   <g id="patch_2">
    <path d="M 46.843208 65.443954 
L 102.561479 65.443954 
L 102.561479 39.498034 
L 46.843208 39.498034 
z
" clip-path="url(#pb8fa57d5c3)" style="fill: #e8eef7; stroke: #000000; stroke-linejoin: miter"/>
   </g>
   <g id="patch_3">
    <path d="M 72.702689 65.443954 
Q 52.414358 65.443954 33.020454 65.443954 
" clip-path="url(#pb8fa57d5c3)" style="fill: none; stroke: #000000; stroke-width: 0.8; stroke-linecap: round"/>
    <path d="M 36.220454 67.043954 
L 33.020454 65.443954 
L 36.220454 63.843954 
z
" clip-path="url(#pb8fa57d5c3)" style="stroke: #000000; stroke-width: 0.8; stroke-linecap: round"/>
   </g>
   <g id="patch_4">
    <path d="M 36.813919 115.173634 
L 112.590768 115.173634 
L 112.590768 84.903394 
L 36.813919 84.903394 
z
" clip-path="url(#pb8fa57d5c3)" style="fill: #ffffff; stroke: #000000; stroke-width: 0.9; stroke-linejoin: miter"/>
   </g>
   <g id="patch_5">
    <path d="M 32.129014 100.038514 
Q 33.471807 100.038514 33.920172 100.038514 
" clip-path="url(#pb8fa57d5c3)" style="fill: none; stroke: #000000; stroke-width: 0.8; stroke-linecap: round"/>
    <path d="M 30.720172 98.438514 
L 33.920172 100.038514 
L 30.720172 101.638514 
z
" clip-path="url(#pb8fa57d5c3)" style="stroke: #000000; stroke-width: 0.8; stroke-linecap: round"/>
   </g>
   <g id="patch_6">
    <path d="M 36.813919 162.741154 
L 112.590768 162.741154 
L 112.590768 132.470914 
L 36.813919 132.470914 
z
" clip-path="url(#pb8fa57d5c3)" style="fill: #ffffff; stroke: #000000; stroke-width: 0.9; stroke-linejoin: miter"/>
   </g>
   <g id="patch_7">
    <path d="M 32.129014 147.606034 
Q 33.471807 147.606034 33.920172 147.606034 
" clip-path="url(#pb8fa57d5c3)" style="fill: none; stroke: #000000; stroke-width: 0.8; stroke-linecap: round"/>
    <path d="M 30.720172 146.006034 
L 33.920172 147.606034 
L 30.720172 149.206034 
z
" clip-path="url(#pb8fa57d5c3)" style="stroke: #000000; stroke-width: 0.8; stroke-linecap: round"/>
   </g>
   <g id="patch_8">
    <path d="M 36.813919 210.308674 
L 112.590768 210.308674 
L 112.590768 180.038434 
L 36.813919 180.038434 
z
" clip-path="url(#pb8fa57d5c3)" style="fill: #ffffff; stroke: #000000; stroke-width: 0.9; stroke-linejoin: miter"/>
   </g>
   <g id="patch_9">
    <path d="M 32.129014 195.173554 
Q 33.471807 195.173554 33.920172 195.173554 
" clip-path="url(#pb8fa57d5c3)" style="fill: none; stroke: #000000; stroke-width: 0.8; stroke-linecap: round"/>
    <path d="M 30.720172 193.573554 
L 33.920172 195.173554 
L 30.720172 196.773554 
z
" clip-path="url(#pb8fa57d5c3)" style="stroke: #000000; stroke-width: 0.8; stroke-linecap: round"/>
   </g>
   <g id="line2d_1">
    <path d="M 30.127727 182.200594 
L 30.127727 65.443954 
" clip-path="url(#pb8fa57d5c3)" style="fill: none; stroke: #000000; stroke-width: 0.9; stroke-linecap: square"/>
   </g>
   <g id="text_1">
    <text style="font-size: 9px; font-family: 'DejaVu Serif', 'Times New Roman', 'STIXGeneral', serif" transform="translate(49.666172 49.408357)">Shared fan</text>
    <text style="font-size: 9px; font-family: 'DejaVu Serif', 'Times New Roman', 'STIXGeneral', serif" transform="translate(55.625156 60.210115)">capacity</text>
   </g>
   <g id="text_2">
    <text style="font-weight: 700; font-size: 9px; font-family: 'DejaVu Serif', 'Times New Roman', 'STIXGeneral', serif; text-anchor: middle" x="74.702344" y="96.971004" transform="rotate(-0 74.702344 96.971004)">Room A</text>
   </g>
   <g id="text_3">
    <text style="font-size: 7.5px; font-family: 'DejaVu Serif', 'Times New Roman', 'STIXGeneral', serif; text-anchor: middle" x="74.702344" y="108.040804" transform="rotate(-0 74.702344 108.040804)">180 m³ · occupancy → CO₂</text>
   </g>
   <g id="text_4">
    <text style="font-weight: 700; font-size: 9px; font-family: 'DejaVu Serif', 'Times New Roman', 'STIXGeneral', serif; text-anchor: middle" x="74.702344" y="144.538524" transform="rotate(-0 74.702344 144.538524)">Room B</text>
   </g>
   <g id="text_5">
    <text style="font-size: 7.5px; font-family: 'DejaVu Serif', 'Times New Roman', 'STIXGeneral', serif; text-anchor: middle" x="74.702344" y="155.608324" transform="rotate(-0 74.702344 155.608324)">180 m³ · occupancy → CO₂</text>
   </g>
   <g id="text_6">
    <text style="font-weight: 700; font-size: 9px; font-family: 'DejaVu Serif', 'Times New Roman', 'STIXGeneral', serif; text-anchor: middle" x="74.702344" y="192.106044" transform="rotate(-0 74.702344 192.106044)">Room C</text>
   </g>
   <g id="text_7">
    <text style="font-size: 7.5px; font-family: 'DejaVu Serif', 'Times New Roman', 'STIXGeneral', serif; text-anchor: middle" x="74.702344" y="203.175844" transform="rotate(-0 74.702344 203.175844)">180 m³ · occupancy → CO₂</text>
   </g>
   <g id="text_8">
    <text style="font-size: 7.5px; font-family: 'DejaVu Serif', 'Times New Roman', 'STIXGeneral', serif" transform="translate(19.220508 218.213573)">Controller allocates a limited</text>
    <text style="font-size: 7.5px; font-family: 'DejaVu Serif', 'Times New Roman', 'STIXGeneral', serif" transform="translate(7.2 227.215624)">outdoor-air command across rooms</text>
   </g>
   <g id="text_9">
    <text style="font-weight: 700; font-size: 9px; font-family: 'DejaVu Serif', 'Times New Roman', 'STIXGeneral', serif; text-anchor: start" x="18.984073" y="14.038594" transform="rotate(-0 18.984073 14.038594)">(a) Shared-airflow model</text>
   </g>
  </g>
  <g id="axes_2">
   <g id="patch_10">
    <path d="M 186.927095 121.074108 
L 417.954073 121.074108 
L 417.954073 20.038594 
L 186.927095 20.038594 
z
" style="fill: #ffffff"/>
   </g>
   <g id="matplotlib.axis_1">
    <g id="xtick_1">
     <g id="line2d_2">
      <defs>
       <path id="mb04b0ccd74" d="M 0 0 
L 0 3.5 
" style="stroke: #000000; stroke-width: 0.8"/>
      </defs>
      <g>
       <use xlink:href="#mb04b0ccd74" x="209.096351" y="121.074108" style="stroke: #000000; stroke-width: 0.8"/>
      </g>
     </g>
    </g>
    <g id="xtick_2">
     <g id="line2d_3">
      <g>
       <use xlink:href="#mb04b0ccd74" x="255.768467" y="121.074108" style="stroke: #000000; stroke-width: 0.8"/>
      </g>
     </g>
    </g>
    <g id="xtick_3">
     <g id="line2d_4">
      <g>
       <use xlink:href="#mb04b0ccd74" x="302.440584" y="121.074108" style="stroke: #000000; stroke-width: 0.8"/>
      </g>
     </g>
    </g>
    <g id="xtick_4">
     <g id="line2d_5">
      <g>
       <use xlink:href="#mb04b0ccd74" x="349.112701" y="121.074108" style="stroke: #000000; stroke-width: 0.8"/>
      </g>
     </g>
    </g>
    <g id="xtick_5">
     <g id="line2d_6">
      <g>
       <use xlink:href="#mb04b0ccd74" x="395.784817" y="121.074108" style="stroke: #000000; stroke-width: 0.8"/>
      </g>
     </g>
    </g>
   </g>
   <g id="matplotlib.axis_2">
    <g id="ytick_1">
     <g id="line2d_7">
      <path d="M 186.927095 112.740465 
L 417.954073 112.740465 
" clip-path="url(#p759805acbd)" style="fill: none; stroke: #d8d8d8; stroke-width: 0.5; stroke-linecap: square"/>
     </g>
     <g id="line2d_8">
      <defs>
       <path id="m9e9046a961" d="M 0 0 
L -3.5 0 
" style="stroke: #000000; stroke-width: 0.8"/>
      </defs>
      <g>
       <use xlink:href="#m9e9046a961" x="186.927095" y="112.740465" style="stroke: #000000; stroke-width: 0.8"/>
      </g>
     </g>
     <g id="text_10">
      <text style="font-size: 9px; font-family: 'DejaVu Serif', 'Times New Roman', 'STIXGeneral', serif; text-anchor: end" x="179.927095" y="116.15941" transform="rotate(-0 179.927095 116.15941)">500</text>
     </g>
    </g>
    <g id="ytick_2">
     <g id="line2d_9">
      <path d="M 186.927095 84.442707 
L 417.954073 84.442707 
" clip-path="url(#p759805acbd)" style="fill: none; stroke: #d8d8d8; stroke-width: 0.5; stroke-linecap: square"/>
     </g>
     <g id="line2d_10">
      <g>
       <use xlink:href="#m9e9046a961" x="186.927095" y="84.442707" style="stroke: #000000; stroke-width: 0.8"/>
      </g>
     </g>
     <g id="text_11">
      <text style="font-size: 9px; font-family: 'DejaVu Serif', 'Times New Roman', 'STIXGeneral', serif; text-anchor: end" x="179.927095" y="87.861652" transform="rotate(-0 179.927095 87.861652)">1000</text>
     </g>
    </g>
    <g id="ytick_3">
     <g id="line2d_11">
      <path d="M 186.927095 56.144949 
L 417.954073 56.144949 
" clip-path="url(#p759805acbd)" style="fill: none; stroke: #d8d8d8; stroke-width: 0.5; stroke-linecap: square"/>
     </g>
     <g id="line2d_12">
      <g>
       <use xlink:href="#m9e9046a961" x="186.927095" y="56.144949" style="stroke: #000000; stroke-width: 0.8"/>
      </g>
     </g>
     <g id="text_12">
      <text style="font-size: 9px; font-family: 'DejaVu Serif', 'Times New Roman', 'STIXGeneral', serif; text-anchor: end" x="179.927095" y="59.563895" transform="rotate(-0 179.927095 59.563895)">1500</text>
     </g>
    </g>
    <g id="ytick_4">
     <g id="line2d_13">
      <path d="M 186.927095 27.847192 
L 417.954073 27.847192 
" clip-path="url(#p759805acbd)" style="fill: none; stroke: #d8d8d8; stroke-width: 0.5; stroke-linecap: square"/>
     </g>
     <g id="line2d_14">
      <g>
       <use xlink:href="#m9e9046a961" x="186.927095" y="27.847192" style="stroke: #000000; stroke-width: 0.8"/>
      </g>
     </g>
     <g id="text_13">
      <text style="font-size: 9px; font-family: 'DejaVu Serif', 'Times New Roman', 'STIXGeneral', serif; text-anchor: end" x="179.927095" y="31.266137" transform="rotate(-0 179.927095 31.266137)">2000</text>
     </g>
    </g>
    <g id="text_14">
     <text style="font-size: 9px; font-family: 'DejaVu Serif', 'Times New Roman', 'STIXGeneral', serif; text-anchor: middle" x="150.859986" y="70.556351" transform="rotate(-90 150.859986 70.556351)">CO₂ (ppm)</text>
    </g>
   </g>
   <g id="line2d_15">
    <path d="M 197.428322 115.094214 
L 199.372993 115.18399 
L 201.317665 115.268754 
L 203.262336 115.524376 
L 205.207008 116.022968 
L 207.151679 116.310488 
L 209.096351 116.476292 
L 211.041022 105.960246 
L 212.985694 99.895993 
L 214.930365 96.398941 
L 216.875037 94.382307 
L 218.819708 93.219382 
L 220.76438 92.548762 
L 222.709052 92.162037 
L 224.653723 91.939026 
L 226.598395 91.810423 
L 228.543066 91.736262 
L 230.487738 91.693496 
L 232.432409 91.668834 
L 234.377081 88.588031 
L 236.321752 86.434036 
L 238.266424 84.928035 
L 240.211095 79.98276 
L 242.155767 75.919392 
L 244.100438 67.58477 
L 246.04511 70.327157 
L 247.989781 78.597365 
L 249.934453 85.392718 
L 251.879124 94.811639 
L 253.823796 101.397035 
L 255.768467 107.8762 
L 257.713139 100.576394 
L 259.657811 96.366839 
L 261.602482 91.448253 
L 263.547154 91.102944 
L 265.491825 90.903816 
L 267.436497 90.788986 
L 269.381168 90.722767 
L 271.32584 90.68458 
L 273.270511 90.66256 
L 275.215183 84.270161 
L 277.159854 79.017741 
L 279.104526 74.702002 
L 281.049197 71.155903 
L 282.993869 68.242192 
L 284.93854 59.911747 
L 286.883212 52.046419 
L 288.827883 39.102176 
L 290.772555 26.880653 
L 292.717226 26.377624 
L 294.661898 25.902681 
L 296.60657 25.454255 
L 298.551241 25.030866 
L 300.495913 24.631117 
L 302.440584 29.77175 
L 304.385256 34.625364 
L 306.329927 39.207984 
L 308.274599 43.534742 
L 310.21927 47.619922 
L 312.163942 59.939586 
L 314.108613 70.062244 
L 316.053285 78.379694 
L 317.997956 89.908366 
L 319.942628 97.96883 
L 321.887299 105.899269 
L 323.831971 110.472489 
L 325.776642 113.109712 
L 327.721314 101.89652 
L 329.665985 95.430246 
L 331.610657 91.701362 
L 333.555329 89.551038 
L 335.5 88.311018 
L 337.444672 84.118026 
L 339.389343 81.186426 
L 341.334015 79.136749 
L 343.278686 77.703683 
L 345.223358 81.479043 
L 347.168029 83.656168 
L 349.112701 84.911643 
L 351.057372 81.741296 
L 353.002044 79.524696 
L 354.946715 77.974923 
L 356.891387 76.891373 
L 358.836058 71.256971 
L 360.78073 61.060336 
L 362.725401 64.167004 
L 364.670073 67.100216 
L 366.614744 69.869657 
L 368.559416 72.484472 
L 370.504088 74.953292 
L 372.448759 82.398505 
L 374.393431 84.313792 
L 376.338102 86.122142 
L 378.282774 87.829526 
L 380.227445 89.441581 
L 382.172117 90.963629 
L 384.116788 92.400697 
L 386.06146 93.757528 
L 388.006131 95.038603 
L 389.950803 96.248151 
L 391.895474 97.390166 
L 393.840146 98.468418 
L 395.784817 99.486468 
L 397.729489 100.447677 
L 399.67416 101.355219 
L 401.618832 102.212089 
L 403.563503 103.021117 
L 405.508175 103.784975 
L 407.452847 104.506184 
" clip-path="url(#p759805acbd)" style="fill: none; stroke: #3b6fb6; stroke-width: 1.3; stroke-linecap: square"/>
   </g>
   <g id="line2d_16">
    <path d="M 197.428322 115.111149 
L 199.372993 115.19998 
L 201.317665 115.283851 
L 203.262336 115.36304 
L 205.207008 115.437807 
L 207.151679 115.508399 
L 209.096351 115.57505 
L 211.041022 115.63798 
L 212.985694 115.697396 
L 214.930365 115.753495 
L 216.875037 116.038882 
L 218.819708 116.319666 
L 220.76438 116.481584 
L 222.709052 108.08563 
L 224.653723 103.243963 
L 226.598395 100.451935 
L 228.543066 98.841866 
L 230.487738 95.725508 
L 232.432409 93.546654 
L 234.377081 92.023272 
L 236.321752 90.958174 
L 238.266424 90.213493 
L 240.211095 89.692837 
L 242.155767 89.328811 
L 244.100438 92.427531 
L 246.04511 94.214459 
L 247.989781 92.490179 
L 249.934453 91.28462 
L 251.879124 87.328086 
L 253.823796 84.077133 
L 255.768467 77.40937 
L 257.713139 79.603217 
L 259.657811 81.674574 
L 261.602482 87.921158 
L 263.547154 93.053769 
L 265.491825 100.16799 
L 267.436497 107.167451 
L 269.381168 98.469817 
L 271.32584 93.45418 
L 273.270511 90.56183 
L 275.215183 85.691719 
L 277.159854 82.2867 
L 279.104526 79.906024 
L 281.049197 78.241534 
L 282.993869 72.366353 
L 284.93854 72.970048 
L 286.883212 73.392131 
L 288.827883 79.205301 
L 290.772555 83.269675 
L 292.717226 86.11135 
L 294.661898 88.098154 
L 296.60657 85.983272 
L 298.551241 84.245544 
L 300.495913 78.841776 
L 302.440584 68.221656 
L 304.385256 70.928484 
L 306.329927 73.48418 
L 308.274599 75.897184 
L 310.21927 78.175461 
L 312.163942 80.326534 
L 314.108613 82.357506 
L 316.053285 84.275082 
L 317.997956 86.085594 
L 319.942628 87.795018 
L 321.887299 89.409 
L 323.831971 90.932867 
L 325.776642 92.371652 
L 327.721314 93.730105 
L 329.665985 95.012711 
L 331.610657 96.223705 
L 333.555329 97.367085 
L 335.5 98.446626 
L 337.444672 101.702194 
L 339.389343 95.038927 
L 341.334015 89.563942 
L 343.278686 85.065329 
L 345.223358 89.11999 
L 347.168029 88.079363 
L 349.112701 87.351792 
L 351.057372 86.843098 
L 353.002044 86.487436 
L 354.946715 86.23877 
L 356.891387 86.06491 
L 358.836058 85.943353 
L 360.78073 89.626317 
L 362.725401 91.75016 
L 364.670073 92.974909 
L 366.614744 93.681182 
L 368.559416 94.088465 
L 370.504088 94.323332 
L 372.448759 91.717367 
L 374.393431 93.11235 
L 376.338102 94.429448 
L 378.282774 95.673007 
L 380.227445 96.847134 
L 382.172117 97.955706 
L 384.116788 99.002382 
L 386.06146 99.990619 
L 388.006131 100.92368 
L 389.950803 101.804644 
L 391.895474 102.636422 
L 393.840146 103.421758 
L 395.784817 104.163247 
L 397.729489 104.863336 
L 399.67416 105.524336 
L 401.618832 106.148431 
L 403.563503 106.73768 
L 405.508175 107.29403 
L 407.452847 107.819317 
" clip-path="url(#p759805acbd)" style="fill: none; stroke-dasharray: 4.81,2.08; stroke-dashoffset: 0; stroke: #d97904; stroke-width: 1.3"/>
   </g>
   <g id="line2d_17">
    <path d="M 197.428322 114.679304 
L 199.372993 114.792246 
L 201.317665 114.898882 
L 203.262336 114.999565 
L 205.207008 115.094626 
L 207.151679 115.184379 
L 209.096351 115.269122 
L 211.041022 115.349132 
L 212.985694 115.424676 
L 214.930365 115.496002 
L 216.875037 115.563345 
L 218.819708 115.626928 
L 220.76438 115.686961 
L 222.709052 115.743643 
L 224.653723 115.79716 
L 226.598395 115.847688 
L 228.543066 115.895396 
L 230.487738 116.039267 
L 232.432409 116.157481 
L 234.377081 103.587345 
L 236.321752 94.798725 
L 238.266424 88.654015 
L 240.211095 87.793735 
L 242.155767 87.29764 
L 244.100438 87.011558 
L 246.04511 86.846585 
L 247.989781 86.75145 
L 249.934453 86.696589 
L 251.879124 86.664953 
L 253.823796 86.646709 
L 255.768467 86.636188 
L 257.713139 86.630121 
L 259.657811 86.626623 
L 261.602482 86.624605 
L 263.547154 82.938943 
L 265.491825 76.226057 
L 267.436497 65.751982 
L 269.381168 68.596699 
L 271.32584 71.282587 
L 273.270511 73.818513 
L 275.215183 76.212849 
L 277.159854 78.473502 
L 279.104526 80.607935 
L 281.049197 72.860469 
L 282.993869 70.916176 
L 284.93854 69.318615 
L 286.883212 68.005952 
L 288.827883 66.927381 
L 290.772555 66.041156 
L 292.717226 65.312973 
L 294.661898 64.71465 
L 296.60657 70.591497 
L 298.551241 74.700392 
L 300.495913 82.71841 
L 302.440584 87.342134 
L 304.385256 90.008481 
L 306.329927 91.546075 
L 308.274599 92.432754 
L 310.21927 92.944072 
L 312.163942 90.328568 
L 314.108613 88.499894 
L 316.053285 90.07452 
L 317.997956 91.56123 
L 319.942628 92.964931 
L 321.887299 94.290259 
L 323.831971 95.54159 
L 325.776642 96.723054 
L 327.721314 97.838554 
L 329.665985 98.891771 
L 331.610657 99.886184 
L 333.555329 100.825076 
L 335.5 101.711546 
L 337.444672 102.548521 
L 339.389343 103.338765 
L 341.334015 104.084888 
L 343.278686 104.789352 
L 345.223358 105.454483 
L 347.168029 107.460317 
L 349.112701 109.108444 
L 351.057372 100.356759 
L 353.002044 94.237872 
L 354.946715 89.95975 
L 356.891387 86.96863 
L 358.836058 88.519695 
L 360.78073 89.414143 
L 362.725401 89.92994 
L 364.670073 90.227384 
L 366.614744 90.39891 
L 368.559416 90.497823 
L 370.504088 90.554863 
L 372.448759 90.587756 
L 374.393431 90.606724 
L 376.338102 90.617663 
L 378.282774 90.62397 
L 380.227445 90.627608 
L 382.172117 90.629706 
L 384.116788 87.437041 
L 386.06146 89.071009 
L 388.006131 90.613748 
L 389.950803 92.070351 
L 391.895474 93.445626 
L 393.840146 94.744115 
L 395.784817 95.970106 
L 397.729489 97.127645 
L 399.67416 98.220555 
L 401.618832 99.252444 
L 403.563503 100.226719 
L 405.508175 101.146597 
L 407.452847 102.015116 
" clip-path="url(#p759805acbd)" style="fill: none; stroke-dasharray: 8.32,2.08,1.3,2.08; stroke-dashoffset: 0; stroke: #27865b; stroke-width: 1.3"/>
   </g>
   <g id="line2d_18">
    <path d="M 186.927095 84.442707 
L 417.954073 84.442707 
" clip-path="url(#p759805acbd)" style="fill: none; stroke-dasharray: 0.9,1.485; stroke-dashoffset: 0; stroke: #000000; stroke-width: 0.9"/>
   </g>
   <g id="patch_11">
    <path d="M 186.927095 121.074108 
L 186.927095 20.038594 
" style="fill: none; stroke: #000000; stroke-width: 0.8; stroke-linejoin: miter; stroke-linecap: square"/>
   </g>
   <g id="patch_12">
    <path d="M 417.954073 121.074108 
L 417.954073 20.038594 
" style="fill: none; stroke: #000000; stroke-width: 0.8; stroke-linejoin: miter; stroke-linecap: square"/>
   </g>
   <g id="patch_13">
    <path d="M 186.927095 121.074108 
L 417.954073 121.074108 
" style="fill: none; stroke: #000000; stroke-width: 0.8; stroke-linejoin: miter; stroke-linecap: square"/>
   </g>
   <g id="patch_14">
    <path d="M 186.927095 20.038594 
L 417.954073 20.038594 
" style="fill: none; stroke: #000000; stroke-width: 0.8; stroke-linejoin: miter; stroke-linecap: square"/>
   </g>
   <g id="text_15">
    <text style="font-weight: 700; font-size: 9px; font-family: 'DejaVu Serif', 'Times New Roman', 'STIXGeneral', serif; text-anchor: start" x="186.927095" y="14.038594" transform="rotate(-0 186.927095 14.038594)">(b) Representative combined-stress day</text>
   </g>
   <g id="legend_1">
    <g id="line2d_19">
     <path d="M 289.965323 28.945531 
L 296.765323 28.945531 
L 303.565323 28.945531 
" style="fill: none; stroke: #3b6fb6; stroke-width: 1.3; stroke-linecap: square"/>
    </g>
    <g id="text_16">
     <text style="font-size: 6.8px; font-family: 'DejaVu Serif', 'Times New Roman', 'STIXGeneral', serif; text-anchor: start" x="309.005323" y="31.325531" transform="rotate(-0 309.005323 31.325531)">Room A</text>
    </g>
    <g id="line2d_20">
     <path d="M 289.965323 39.146062 
L 296.765323 39.146062 
L 303.565323 39.146062 
" style="fill: none; stroke-dasharray: 4.81,2.08; stroke-dashoffset: 0; stroke: #d97904; stroke-width: 1.3"/>
    </g>
    <g id="text_17">
     <text style="font-size: 6.8px; font-family: 'DejaVu Serif', 'Times New Roman', 'STIXGeneral', serif; text-anchor: start" x="309.005323" y="41.526062" transform="rotate(-0 309.005323 41.526062)">Room B</text>
    </g>
    <g id="line2d_21">
     <path d="M 349.51951 28.945531 
L 356.31951 28.945531 
L 363.11951 28.945531 
" style="fill: none; stroke-dasharray: 8.32,2.08,1.3,2.08; stroke-dashoffset: 0; stroke: #27865b; stroke-width: 1.3"/>
    </g>
    <g id="text_18">
     <text style="font-size: 6.8px; font-family: 'DejaVu Serif', 'Times New Roman', 'STIXGeneral', serif; text-anchor: start" x="368.55951" y="31.325531" transform="rotate(-0 368.55951 31.325531)">Room C</text>
    </g>
    <g id="line2d_22">
     <path d="M 349.51951 39.146062 
L 356.31951 39.146062 
L 363.11951 39.146062 
" style="fill: none; stroke-dasharray: 0.9,1.485; stroke-dashoffset: 0; stroke: #000000; stroke-width: 0.9"/>
    </g>
    <g id="text_19">
     <text style="font-size: 6.8px; font-family: 'DejaVu Serif', 'Times New Roman', 'STIXGeneral', serif; text-anchor: start" x="368.55951" y="41.526062" transform="rotate(-0 368.55951 41.526062)">Study target</text>
    </g>
   </g>
  </g>
  <g id="axes_3">
   <g id="patch_15">
    <path d="M 186.927095 236.254594 
L 417.954073 236.254594 
L 417.954073 135.21908 
L 186.927095 135.21908 
z
" style="fill: #ffffff"/>
   </g>
   <g id="matplotlib.axis_3">
    <g id="xtick_6">
     <g id="line2d_23">
      <g>
       <use xlink:href="#mb04b0ccd74" x="209.096351" y="236.254594" style="stroke: #000000; stroke-width: 0.8"/>
      </g>
     </g>
     <g id="text_20">
      <text style="font-size: 9px; font-family: 'DejaVu Serif', 'Times New Roman', 'STIXGeneral', serif; text-anchor: middle" x="209.096351" y="250.092484" transform="rotate(-0 209.096351 250.092484)">08:00</text>
     </g>
    </g>
    <g id="xtick_7">
     <g id="line2d_24">
      <g>
       <use xlink:href="#mb04b0ccd74" x="255.768467" y="236.254594" style="stroke: #000000; stroke-width: 0.8"/>
      </g>
     </g>
     <g id="text_21">
      <text style="font-size: 9px; font-family: 'DejaVu Serif', 'Times New Roman', 'STIXGeneral', serif; text-anchor: middle" x="255.768467" y="250.092484" transform="rotate(-0 255.768467 250.092484)">10:00</text>
     </g>
    </g>
    <g id="xtick_8">
     <g id="line2d_25">
      <g>
       <use xlink:href="#mb04b0ccd74" x="302.440584" y="236.254594" style="stroke: #000000; stroke-width: 0.8"/>
      </g>
     </g>
     <g id="text_22">
      <text style="font-size: 9px; font-family: 'DejaVu Serif', 'Times New Roman', 'STIXGeneral', serif; text-anchor: middle" x="302.440584" y="250.092484" transform="rotate(-0 302.440584 250.092484)">12:00</text>
     </g>
    </g>
    <g id="xtick_9">
     <g id="line2d_26">
      <g>
       <use xlink:href="#mb04b0ccd74" x="349.112701" y="236.254594" style="stroke: #000000; stroke-width: 0.8"/>
      </g>
     </g>
     <g id="text_23">
      <text style="font-size: 9px; font-family: 'DejaVu Serif', 'Times New Roman', 'STIXGeneral', serif; text-anchor: middle" x="349.112701" y="250.092484" transform="rotate(-0 349.112701 250.092484)">14:00</text>
     </g>
    </g>
    <g id="xtick_10">
     <g id="line2d_27">
      <g>
       <use xlink:href="#mb04b0ccd74" x="395.784817" y="236.254594" style="stroke: #000000; stroke-width: 0.8"/>
      </g>
     </g>
     <g id="text_24">
      <text style="font-size: 9px; font-family: 'DejaVu Serif', 'Times New Roman', 'STIXGeneral', serif; text-anchor: middle" x="395.784817" y="250.092484" transform="rotate(-0 395.784817 250.092484)">16:00</text>
     </g>
    </g>
    <g id="text_25">
     <text style="font-size: 9px; font-family: 'DejaVu Serif', 'Times New Roman', 'STIXGeneral', serif; text-anchor: middle" x="302.440584" y="263.093187" transform="rotate(-0 302.440584 263.093187)">Time of day</text>
    </g>
   </g>
   <g id="matplotlib.axis_4">
    <g id="ytick_5">
     <g id="line2d_28">
      <path d="M 186.927095 231.66207 
L 417.954073 231.66207 
" clip-path="url(#p3071b3e8de)" style="fill: none; stroke: #d8d8d8; stroke-width: 0.5; stroke-linecap: square"/>
     </g>
     <g id="line2d_29">
      <g>
       <use xlink:href="#m9e9046a961" x="186.927095" y="231.66207" style="stroke: #000000; stroke-width: 0.8"/>
      </g>
     </g>
     <g id="text_26">
      <text style="font-size: 9px; font-family: 'DejaVu Serif', 'Times New Roman', 'STIXGeneral', serif; text-anchor: end" x="179.927095" y="235.081016" transform="rotate(-0 179.927095 235.081016)">0</text>
     </g>
    </g>
    <g id="ytick_6">
     <g id="line2d_30">
      <path d="M 186.927095 208.110669 
L 417.954073 208.110669 
" clip-path="url(#p3071b3e8de)" style="fill: none; stroke: #d8d8d8; stroke-width: 0.5; stroke-linecap: square"/>
     </g>
     <g id="line2d_31">
      <g>
       <use xlink:href="#m9e9046a961" x="186.927095" y="208.110669" style="stroke: #000000; stroke-width: 0.8"/>
      </g>
     </g>
     <g id="text_27">
      <text style="font-size: 9px; font-family: 'DejaVu Serif', 'Times New Roman', 'STIXGeneral', serif; text-anchor: end" x="179.927095" y="211.529614" transform="rotate(-0 179.927095 211.529614)">10</text>
     </g>
    </g>
    <g id="ytick_7">
     <g id="line2d_32">
      <path d="M 186.927095 184.559267 
L 417.954073 184.559267 
" clip-path="url(#p3071b3e8de)" style="fill: none; stroke: #d8d8d8; stroke-width: 0.5; stroke-linecap: square"/>
     </g>
     <g id="line2d_33">
      <g>
       <use xlink:href="#m9e9046a961" x="186.927095" y="184.559267" style="stroke: #000000; stroke-width: 0.8"/>
      </g>
     </g>
     <g id="text_28">
      <text style="font-size: 9px; font-family: 'DejaVu Serif', 'Times New Roman', 'STIXGeneral', serif; text-anchor: end" x="179.927095" y="187.978212" transform="rotate(-0 179.927095 187.978212)">20</text>
     </g>
    </g>
    <g id="ytick_8">
     <g id="line2d_34">
      <path d="M 186.927095 161.007865 
L 417.954073 161.007865 
" clip-path="url(#p3071b3e8de)" style="fill: none; stroke: #d8d8d8; stroke-width: 0.5; stroke-linecap: square"/>
     </g>
     <g id="line2d_35">
      <g>
       <use xlink:href="#m9e9046a961" x="186.927095" y="161.007865" style="stroke: #000000; stroke-width: 0.8"/>
      </g>
     </g>
     <g id="text_29">
      <text style="font-size: 9px; font-family: 'DejaVu Serif', 'Times New Roman', 'STIXGeneral', serif; text-anchor: end" x="179.927095" y="164.42681" transform="rotate(-0 179.927095 164.42681)">30</text>
     </g>
    </g>
    <g id="ytick_9">
     <g id="line2d_36">
      <path d="M 186.927095 137.456463 
L 417.954073 137.456463 
" clip-path="url(#p3071b3e8de)" style="fill: none; stroke: #d8d8d8; stroke-width: 0.5; stroke-linecap: square"/>
     </g>
     <g id="line2d_37">
      <g>
       <use xlink:href="#m9e9046a961" x="186.927095" y="137.456463" style="stroke: #000000; stroke-width: 0.8"/>
      </g>
     </g>
     <g id="text_30">
      <text style="font-size: 9px; font-family: 'DejaVu Serif', 'Times New Roman', 'STIXGeneral', serif; text-anchor: end" x="179.927095" y="140.875408" transform="rotate(-0 179.927095 140.875408)">40</text>
     </g>
    </g>
    <g id="text_31">
     <text style="font-size: 9px; font-family: 'DejaVu Serif', 'Times New Roman', 'STIXGeneral', serif; text-anchor: middle" x="162.312486" y="185.736837" transform="rotate(-90 162.312486 185.736837)">People</text>
    </g>
   </g>
   <g id="line2d_38">
    <path d="M 197.428322 231.66207 
L 209.096351 231.66207 
L 209.096351 172.783566 
L 244.100438 172.783566 
L 244.100438 231.66207 
L 255.768467 231.66207 
L 255.768467 170.428426 
L 286.883212 170.428426 
L 286.883212 139.811603 
L 290.772555 139.811603 
L 290.772555 201.045248 
L 300.495913 201.045248 
L 300.495913 231.66207 
L 325.776642 231.66207 
L 325.776642 161.007865 
L 360.78073 161.007865 
L 360.78073 231.66207 
L 405.508175 231.66207 
L 405.508175 231.66207 
" clip-path="url(#p3071b3e8de)" style="fill: none; stroke: #3b6fb6; stroke-linecap: square"/>
   </g>
   <g id="line2d_39">
    <path d="M 197.428322 231.66207 
L 220.76438 231.66207 
L 220.76438 184.559267 
L 255.768467 184.559267 
L 255.768467 231.66207 
L 267.436497 231.66207 
L 267.436497 161.007865 
L 286.883212 161.007865 
L 286.883212 191.624687 
L 300.495913 191.624687 
L 300.495913 161.007865 
L 302.440584 161.007865 
L 302.440584 231.66207 
L 337.444672 231.66207 
L 337.444672 179.848986 
L 372.448759 179.848986 
L 372.448759 231.66207 
L 405.508175 231.66207 
L 405.508175 231.66207 
" clip-path="url(#p3071b3e8de)" style="fill: none; stroke-dasharray: 3.7,1.6; stroke-dashoffset: 0; stroke: #d97904"/>
   </g>
   <g id="line2d_40">
    <path d="M 197.428322 231.66207 
L 232.432409 231.66207 
L 232.432409 161.007865 
L 267.436497 161.007865 
L 267.436497 231.66207 
L 279.104526 231.66207 
L 279.104526 177.493846 
L 314.108613 177.493846 
L 314.108613 231.66207 
L 349.112701 231.66207 
L 349.112701 170.428426 
L 384.116788 170.428426 
L 384.116788 231.66207 
L 405.508175 231.66207 
L 405.508175 231.66207 
" clip-path="url(#p3071b3e8de)" style="fill: none; stroke-dasharray: 6.4,1.6,1,1.6; stroke-dashoffset: 0; stroke: #27865b"/>
   </g>
   <g id="patch_16">
    <path d="M 186.927095 236.254594 
L 186.927095 135.21908 
" style="fill: none; stroke: #000000; stroke-width: 0.8; stroke-linejoin: miter; stroke-linecap: square"/>
   </g>
   <g id="patch_17">
    <path d="M 417.954073 236.254594 
L 417.954073 135.21908 
" style="fill: none; stroke: #000000; stroke-width: 0.8; stroke-linejoin: miter; stroke-linecap: square"/>
   </g>
   <g id="patch_18">
    <path d="M 186.927095 236.254594 
L 417.954073 236.254594 
" style="fill: none; stroke: #000000; stroke-width: 0.8; stroke-linejoin: miter; stroke-linecap: square"/>
   </g>
   <g id="patch_19">
    <path d="M 186.927095 135.21908 
L 417.954073 135.21908 
" style="fill: none; stroke: #000000; stroke-width: 0.8; stroke-linejoin: miter; stroke-linecap: square"/>
   </g>
  </g>
 </g>
 <defs>
  <clipPath id="pb8fa57d5c3">
   <rect x="18.984073" y="20.038594" width="111.436542" height="216.216"/>
  </clipPath>
  <clipPath id="p759805acbd">
   <rect x="186.927095" y="20.038594" width="231.026977" height="101.035514"/>
  </clipPath>
  <clipPath id="p3071b3e8de">
   <rect x="186.927095" y="135.21908" width="231.026977" height="101.035514"/>
  </clipPath>
 </defs>
</svg>
