<?xml version="1.0" encoding="utf-8" standalone="no"?>
<!DOCTYPE svg PUBLIC "-//W3C//DTD SVG 1.1//EN"
  "http://www.w3.org/Graphics/SVG/1.1/DTD/svg11.dtd">
<svg xmlns:xlink="http://www.w3.org/1999/xlink" width="515.409348pt" height="213.501286pt" viewBox="0 0 515.409348 213.501286" xmlns="http://www.w3.org/2000/svg" version="1.1">
 <metadata>
  <rdf:RDF xmlns:dc="http://purl.org/dc/elements/1.1/" xmlns:cc="http://creativecommons.org/ns#" xmlns:rdf="http://www.w3.org/1999/02/22-rdf-syntax-ns#">
   <cc:Work>
    <dc:type rdf:resource="http://purl.org/dc/dcmitype/StillImage"/>
    <dc:date>2026-07-13T14:31:04.605060</dc:date>
    <dc:format>image/svg+xml</dc:format>
    <dc:creator>
     <cc:Agent>
      <dc:title>Matplotlib v3.11.0, https://matplotlib.org/</dc:title>
     </cc:Agent>
    </dc:creator>
   </cc:Work>
  </rdf:RDF>
 </metadata>
 <defs>
  <style type="text/css">*{stroke-linejoin: round; stroke-linecap: butt}</style>
 </defs>
 <g id="figure_1">
  <g id="patch_1">
   <path d="M 0 213.501286
L 515.409348 213.501286
L 515.409348 0
L 0 0
z
" style="fill: #ffffff"/>
  </g>
  <g id="axes_1">
   <g id="patch_2">
    <path d="M 47.973604 179.661738
L 188.956771 179.661738
L 188.956771 19.453594
L 47.973604 19.453594
z
" style="fill: #ffffff"/>
   </g>
   <g id="line2d_1">
    <path d="M 54.38193 27.998028
L 54.38193 70.7202
" clip-path="url(#pdc6781cce0)" style="fill: none; stroke: #a8a8a8; stroke-width: 0.75; stroke-linecap: square"/>
   </g>
   <g id="line2d_2">
    <path d="M 54.38193 27.998028
L 97.104102 27.998028
" clip-path="url(#pdc6781cce0)" style="fill: none; stroke: #a8a8a8; stroke-width: 0.75; stroke-linecap: square"/>
   </g>
   <g id="line2d_3">
    <path d="M 97.104102 27.998028
L 97.104102 70.7202
" clip-path="url(#pdc6781cce0)" style="fill: none; stroke: #a8a8a8; stroke-width: 0.75; stroke-linecap: square"/>
   </g>
   <g id="line2d_4">
    <path d="M 97.104102 27.998028
L 139.826273 27.998028
" clip-path="url(#pdc6781cce0)" style="fill: none; stroke: #a8a8a8; stroke-width: 0.75; stroke-linecap: square"/>
   </g>
   <g id="line2d_5">
    <path d="M 139.826273 27.998028
L 139.826273 70.7202
" clip-path="url(#pdc6781cce0)" style="fill: none; stroke: #a8a8a8; stroke-width: 0.75; stroke-linecap: square"/>
   </g>
   <g id="line2d_6">
    <path d="M 139.826273 27.998028
L 182.548445 27.998028
" clip-path="url(#pdc6781cce0)" style="fill: none; stroke: #a8a8a8; stroke-width: 0.75; stroke-linecap: square"/>
   </g>
   <g id="line2d_7">
    <path d="M 182.548445 27.998028
L 182.548445 70.7202
" clip-path="url(#pdc6781cce0)" style="fill: none; stroke: #a8a8a8; stroke-width: 0.75; stroke-linecap: square"/>
   </g>
   <g id="line2d_8">
    <path d="M 54.38193 70.7202
L 54.38193 113.442372
" clip-path="url(#pdc6781cce0)" style="fill: none; stroke: #a8a8a8; stroke-width: 0.75; stroke-linecap: square"/>
   </g>
   <g id="line2d_9">
    <path d="M 54.38193 70.7202
L 97.104102 70.7202
" clip-path="url(#pdc6781cce0)" style="fill: none; stroke: #a8a8a8; stroke-width: 0.75; stroke-linecap: square"/>
   </g>
   <g id="line2d_10">
    <path d="M 97.104102 70.7202
L 97.104102 113.442372
" clip-path="url(#pdc6781cce0)" style="fill: none; stroke: #a8a8a8; stroke-width: 0.75; stroke-linecap: square"/>
   </g>
   <g id="line2d_11">
    <path d="M 97.104102 70.7202
L 139.826273 70.7202
" clip-path="url(#pdc6781cce0)" style="fill: none; stroke: #a8a8a8; stroke-width: 0.75; stroke-linecap: square"/>
   </g>
   <g id="line2d_12">
    <path d="M 139.826273 70.7202
L 139.826273 113.442372
" clip-path="url(#pdc6781cce0)" style="fill: none; stroke: #a8a8a8; stroke-width: 0.75; stroke-linecap: square"/>
   </g>
   <g id="line2d_13">
    <path d="M 139.826273 70.7202
L 182.548445 70.7202
" clip-path="url(#pdc6781cce0)" style="fill: none; stroke: #a8a8a8; stroke-width: 0.75; stroke-linecap: square"/>
   </g>
   <g id="line2d_14">
    <path d="M 182.548445 70.7202
L 182.548445 113.442372
" clip-path="url(#pdc6781cce0)" style="fill: none; stroke: #a8a8a8; stroke-width: 0.75; stroke-linecap: square"/>
   </g>
   <g id="line2d_15">
    <path d="M 54.38193 113.442372
L 54.38193 156.164544
" clip-path="url(#pdc6781cce0)" style="fill: none; stroke: #a8a8a8; stroke-width: 0.75; stroke-linecap: square"/>
   </g>
   <g id="line2d_16">
    <path d="M 54.38193 113.442372
L 97.104102 113.442372
" clip-path="url(#pdc6781cce0)" style="fill: none; stroke: #a8a8a8; stroke-width: 0.75; stroke-linecap: square"/>
   </g>
   <g id="line2d_17">
    <path d="M 97.104102 113.442372
L 97.104102 156.164544
" clip-path="url(#pdc6781cce0)" style="fill: none; stroke: #a8a8a8; stroke-width: 0.75; stroke-linecap: square"/>
   </g>
   <g id="line2d_18">
    <path d="M 97.104102 113.442372
L 139.826273 113.442372
" clip-path="url(#pdc6781cce0)" style="fill: none; stroke: #a8a8a8; stroke-width: 0.75; stroke-linecap: square"/>
   </g>
   <g id="line2d_19">
    <path d="M 139.826273 113.442372
L 139.826273 156.164544
" clip-path="url(#pdc6781cce0)" style="fill: none; stroke: #a8a8a8; stroke-width: 0.75; stroke-linecap: square"/>
   </g>
   <g id="line2d_20">
    <path d="M 139.826273 113.442372
L 182.548445 113.442372
" clip-path="url(#pdc6781cce0)" style="fill: none; stroke: #a8a8a8; stroke-width: 0.75; stroke-linecap: square"/>
   </g>
   <g id="line2d_21">
    <path d="M 182.548445 113.442372
L 182.548445 156.164544
" clip-path="url(#pdc6781cce0)" style="fill: none; stroke: #a8a8a8; stroke-width: 0.75; stroke-linecap: square"/>
   </g>
   <g id="line2d_22">
    <path d="M 54.38193 156.164544
L 97.104102 156.164544
" clip-path="url(#pdc6781cce0)" style="fill: none; stroke: #a8a8a8; stroke-width: 0.75; stroke-linecap: square"/>
   </g>
   <g id="line2d_23">
    <path d="M 97.104102 156.164544
L 139.826273 156.164544
" clip-path="url(#pdc6781cce0)" style="fill: none; stroke: #a8a8a8; stroke-width: 0.75; stroke-linecap: square"/>
   </g>
   <g id="line2d_24">
    <path d="M 139.826273 156.164544
L 182.548445 156.164544
" clip-path="url(#pdc6781cce0)" style="fill: none; stroke: #a8a8a8; stroke-width: 0.75; stroke-linecap: square"/>
   </g>
   <g id="PathCollection_1"/>
   <g id="matplotlib.axis_1"/>
   <g id="matplotlib.axis_2"/>
   <g id="PathCollection_2">
    <defs>
     <path id="C0_0_30c917fa17" d="M -8.660254 8.660254
L 8.660254 8.660254
L 8.660254 -8.660254
L -8.660254 -8.660254
z
"/>
    </defs>
    <g clip-path="url(#pdc6781cce0)">
     <use xlink:href="#C0_0_30c917fa17" x="54.38193" y="27.998028" style="fill: #f2f2f2; stroke: #000000; stroke-width: 0.85"/>
    </g>
    <g clip-path="url(#pdc6781cce0)">
     <use xlink:href="#C0_0_30c917fa17" x="97.104102" y="27.998028" style="fill: #f2f2f2; stroke: #000000; stroke-width: 0.85"/>
    </g>
    <g clip-path="url(#pdc6781cce0)">
     <use xlink:href="#C0_0_30c917fa17" x="139.826273" y="27.998028" style="fill: #f2f2f2; stroke: #000000; stroke-width: 0.85"/>
    </g>
    <g clip-path="url(#pdc6781cce0)">
     <use xlink:href="#C0_0_30c917fa17" x="182.548445" y="27.998028" style="fill: #f2f2f2; stroke: #000000; stroke-width: 0.85"/>
    </g>
    <g clip-path="url(#pdc6781cce0)">
     <use xlink:href="#C0_0_30c917fa17" x="54.38193" y="70.7202" style="fill: #f2f2f2; stroke: #000000; stroke-width: 0.85"/>
    </g>
    <g clip-path="url(#pdc6781cce0)">
     <use xlink:href="#C0_0_30c917fa17" x="97.104102" y="70.7202" style="fill: #f2f2f2; stroke: #000000; stroke-width: 0.85"/>
    </g>
    <g clip-path="url(#pdc6781cce0)">
     <use xlink:href="#C0_0_30c917fa17" x="139.826273" y="70.7202" style="fill: #f2f2f2; stroke: #000000; stroke-width: 0.85"/>
    </g>
    <g clip-path="url(#pdc6781cce0)">
     <use xlink:href="#C0_0_30c917fa17" x="182.548445" y="70.7202" style="fill: #f2f2f2; stroke: #000000; stroke-width: 0.85"/>
    </g>
    <g clip-path="url(#pdc6781cce0)">
     <use xlink:href="#C0_0_30c917fa17" x="54.38193" y="113.442372" style="fill: #f2f2f2; stroke: #000000; stroke-width: 0.85"/>
    </g>
    <g clip-path="url(#pdc6781cce0)">
     <use xlink:href="#C0_0_30c917fa17" x="97.104102" y="113.442372" style="fill: #f2f2f2; stroke: #000000; stroke-width: 0.85"/>
    </g>
    <g clip-path="url(#pdc6781cce0)">
     <use xlink:href="#C0_0_30c917fa17" x="139.826273" y="113.442372" style="fill: #f2f2f2; stroke: #000000; stroke-width: 0.85"/>
    </g>
    <g clip-path="url(#pdc6781cce0)">
     <use xlink:href="#C0_0_30c917fa17" x="182.548445" y="113.442372" style="fill: #f2f2f2; stroke: #000000; stroke-width: 0.85"/>
    </g>
    <g clip-path="url(#pdc6781cce0)">
     <use xlink:href="#C0_0_30c917fa17" x="54.38193" y="156.164544" style="fill: #f2f2f2; stroke: #000000; stroke-width: 0.85"/>
    </g>
    <g clip-path="url(#pdc6781cce0)">
     <use xlink:href="#C0_0_30c917fa17" x="97.104102" y="156.164544" style="fill: #f2f2f2; stroke: #000000; stroke-width: 0.85"/>
    </g>
    <g clip-path="url(#pdc6781cce0)">
     <use xlink:href="#C0_0_30c917fa17" x="139.826273" y="156.164544" style="fill: #9ecae1; stroke: #000000; stroke-width: 0.85"/>
    </g>
    <g clip-path="url(#pdc6781cce0)">
     <use xlink:href="#C0_0_30c917fa17" x="182.548445" y="156.164544" style="fill: #f2f2f2; stroke: #000000; stroke-width: 0.85"/>
    </g>
   </g>
   <g id="patch_3">
    <path d="M 47.973604 179.661738
L 47.973604 19.453594
" style="fill: none; stroke: #000000; stroke-width: 0.65; stroke-linejoin: miter; stroke-linecap: square"/>
   </g>
   <g id="patch_4">
    <path d="M 188.956771 179.661738
L 188.956771 19.453594
" style="fill: none; stroke: #000000; stroke-width: 0.65; stroke-linejoin: miter; stroke-linecap: square"/>
   </g>
   <g id="patch_5">
    <path d="M 47.973604 179.661738
L 188.956771 179.661738
" style="fill: none; stroke: #000000; stroke-width: 0.65; stroke-linejoin: miter; stroke-linecap: square"/>
   </g>
   <g id="patch_6">
    <path d="M 47.973604 19.453594
L 188.956771 19.453594
" style="fill: none; stroke: #000000; stroke-width: 0.65; stroke-linejoin: miter; stroke-linecap: square"/>
   </g>
   <g id="text_1">
    <text style="font-size: 7.2px; font-family: 'Times New Roman', 'Times', 'DejaVu Serif', serif; text-anchor: middle" x="54.38193" y="29.717169" transform="rotate(-0 54.38193 29.717169)">1</text>
   </g>
   <g id="text_2">
    <text style="font-size: 7.2px; font-family: 'Times New Roman', 'Times', 'DejaVu Serif', serif; text-anchor: middle" x="97.104102" y="29.717169" transform="rotate(-0 97.104102 29.717169)">2</text>
   </g>
   <g id="text_3">
    <text style="font-size: 7.2px; font-family: 'Times New Roman', 'Times', 'DejaVu Serif', serif; text-anchor: middle" x="139.826273" y="29.717169" transform="rotate(-0 139.826273 29.717169)">3</text>
   </g>
   <g id="text_4">
    <text style="font-size: 7.2px; font-family: 'Times New Roman', 'Times', 'DejaVu Serif', serif; text-anchor: middle" x="182.548445" y="29.717169" transform="rotate(-0 182.548445 29.717169)">4</text>
   </g>
   <g id="text_5">
    <text style="font-size: 7.2px; font-family: 'Times New Roman', 'Times', 'DejaVu Serif', serif; text-anchor: middle" x="54.38193" y="72.439341" transform="rotate(-0 54.38193 72.439341)">5</text>
   </g>
   <g id="text_6">
    <text style="font-size: 7.2px; font-family: 'Times New Roman', 'Times', 'DejaVu Serif', serif; text-anchor: middle" x="97.104102" y="72.439341" transform="rotate(-0 97.104102 72.439341)">6</text>
   </g>
   <g id="text_7">
    <text style="font-size: 7.2px; font-family: 'Times New Roman', 'Times', 'DejaVu Serif', serif; text-anchor: middle" x="139.826273" y="72.439341" transform="rotate(-0 139.826273 72.439341)">7</text>
   </g>
   <g id="text_8">
    <text style="font-size: 7.2px; font-family: 'Times New Roman', 'Times', 'DejaVu Serif', serif; text-anchor: middle" x="182.548445" y="72.439341" transform="rotate(-0 182.548445 72.439341)">8</text>
   </g>
   <g id="text_9">
    <text style="font-size: 7.2px; font-family: 'Times New Roman', 'Times', 'DejaVu Serif', serif; text-anchor: middle" x="54.38193" y="115.161513" transform="rotate(-0 54.38193 115.161513)">9</text>
   </g>
   <g id="text_10">
    <text style="font-size: 7.2px; font-family: 'Times New Roman', 'Times', 'DejaVu Serif', serif; text-anchor: middle" x="97.104102" y="115.161513" transform="rotate(-0 97.104102 115.161513)">10</text>
   </g>
   <g id="text_11">
    <text style="font-size: 7.2px; font-family: 'Times New Roman', 'Times', 'DejaVu Serif', serif; text-anchor: middle" x="139.826273" y="115.161513" transform="rotate(-0 139.826273 115.161513)">11</text>
   </g>
   <g id="text_12">
    <text style="font-size: 7.2px; font-family: 'Times New Roman', 'Times', 'DejaVu Serif', serif; text-anchor: middle" x="182.548445" y="115.161513" transform="rotate(-0 182.548445 115.161513)">12</text>
   </g>
   <g id="text_13">
    <text style="font-size: 7.2px; font-family: 'Times New Roman', 'Times', 'DejaVu Serif', serif; text-anchor: middle" x="54.38193" y="157.883684" transform="rotate(-0 54.38193 157.883684)">13</text>
   </g>
   <g id="text_14">
    <text style="font-size: 7.2px; font-family: 'Times New Roman', 'Times', 'DejaVu Serif', serif; text-anchor: middle" x="97.104102" y="157.883684" transform="rotate(-0 97.104102 157.883684)">14</text>
   </g>
   <g id="text_15">
    <text style="font-size: 7.2px; font-family: 'Times New Roman', 'Times', 'DejaVu Serif', serif; text-anchor: middle" x="139.826273" y="157.883684" transform="rotate(-0 139.826273 157.883684)">15</text>
   </g>
   <g id="text_16">
    <text style="font-size: 7.2px; font-family: 'Times New Roman', 'Times', 'DejaVu Serif', serif; text-anchor: middle" x="182.548445" y="157.883684" transform="rotate(-0 182.548445 157.883684)">16</text>
   </g>
   <g id="text_17">
    <text style="font-size: 9px; font-family: 'Times New Roman', 'Times', 'DejaVu Serif', serif; text-anchor: middle" x="118.465187" y="13.453594" transform="rotate(-0 118.465187 13.453594)">(a) Coupled 4 × 4 thermal network</text>
   </g>
   <g id="PathCollection_3">
    <defs>
     <path id="m83b93e9f49" d="M 0 -2.915476
L -2.915476 2.915476
L 2.915476 2.915476
z
" style="stroke: #000000; stroke-width: 0.8"/>
    </defs>
    <g clip-path="url(#pdc6781cce0)">
     <use xlink:href="#m83b93e9f49" x="139.826273" y="98.916834" style="fill: #ffffff; stroke: #000000; stroke-width: 0.8"/>
    </g>
   </g>
   <g id="PathCollection_4">
    <defs>
     <path id="md610a77c26" d="M -2.915476 2.915476
L 2.915476 -2.915476
M -2.915476 -2.915476
L 2.915476 2.915476
" style="stroke: #000000"/>
    </defs>
    <g clip-path="url(#pdc6781cce0)">
     <use xlink:href="#md610a77c26" x="54.38193" y="85.245738" style="stroke: #000000"/>
    </g>
   </g>
   <g id="legend_1">
    <g id="patch_7">
     <path d="M 7.2 206.301286
L 229.730375 206.301286
L 229.730375 193.261052
L 7.2 193.261052
z
" style="fill: #ffffff; opacity: 0.8; stroke: #000000; stroke-linejoin: miter"/>
    </g>
    <g id="PathCollection_5">
     <g>
      <use xlink:href="#m83b93e9f49" x="17.84" y="199.626052" style="fill: #ffffff; stroke: #000000; stroke-width: 0.8"/>
     </g>
    </g>
    <g id="text_18">
     <text style="font-size: 7.6px; font-family: 'Times New Roman', 'Times', 'DejaVu Serif', serif; text-anchor: start" x="31.52" y="201.621052" transform="rotate(-0 31.52 201.621052)">Drifting sensor</text>
    </g>
    <g id="PathCollection_6">
     <g>
      <use xlink:href="#md610a77c26" x="100.12425" y="199.626052" style="stroke: #000000"/>
     </g>
    </g>
    <g id="text_19">
     <text style="font-size: 7.6px; font-family: 'Times New Roman', 'Times', 'DejaVu Serif', serif; text-anchor: start" x="113.80425" y="201.621052" transform="rotate(-0 113.80425 201.621052)">Dropped sensor</text>
    </g>
    <g id="PathCollection_7">
     <defs>
      <path id="m12ef6f0f00" d="M -2.915476 2.915476
L 2.915476 2.915476
L 2.915476 -2.915476
L -2.915476 -2.915476
z
" style="stroke: #000000"/>
     </defs>
     <g>
      <use xlink:href="#m12ef6f0f00" x="184.5175" y="199.626052" style="fill: #9ecae1; stroke: #000000"/>
     </g>
    </g>
    <g id="text_20">
     <text style="font-size: 7.6px; font-family: 'Times New Roman', 'Times', 'DejaVu Serif', serif; text-anchor: start" x="198.1975" y="201.621052" transform="rotate(-0 198.1975 201.621052)">Fault cell</text>
    </g>
   </g>
  </g>
  <g id="axes_2">
   <g id="patch_8">
    <path d="M 270.871722 179.661738
L 503.048328 179.661738
L 503.048328 19.453594
L 270.871722 19.453594
z
" style="fill: #ffffff"/>
   </g>
   <g id="matplotlib.axis_3">
    <g id="xtick_1">
     <g id="line2d_25">
      <path d="M 281.425204 179.661738
L 281.425204 19.453594
" clip-path="url(#p12abbaee42)" style="fill: none; stroke-dasharray: 2.035,0.88; stroke-dashoffset: 0; stroke: #d8d8d8; stroke-width: 0.55"/>
     </g>
     <g id="line2d_26">
      <defs>
       <path id="mb1782fa841" d="M 0 0
L 0 3
" style="stroke: #000000; stroke-width: 0.7"/>
      </defs>
      <g>
       <use xlink:href="#mb1782fa841" x="281.425204" y="179.661738" style="stroke: #000000; stroke-width: 0.7"/>
      </g>
     </g>
     <g id="text_21">
      <text style="font-size: 8px; font-family: 'Times New Roman', 'Times', 'DejaVu Serif', serif; text-anchor: middle" x="281.425204" y="191.708613" transform="rotate(-0 281.425204 191.708613)">0</text>
     </g>
    </g>
    <g id="xtick_2">
     <g id="line2d_27">
      <path d="M 325.582033 179.661738
L 325.582033 19.453594
" clip-path="url(#p12abbaee42)" style="fill: none; stroke-dasharray: 2.035,0.88; stroke-dashoffset: 0; stroke: #d8d8d8; stroke-width: 0.55"/>
     </g>
     <g id="line2d_28">
      <g>
       <use xlink:href="#mb1782fa841" x="325.582033" y="179.661738" style="stroke: #000000; stroke-width: 0.7"/>
      </g>
     </g>
     <g id="text_22">
      <text style="font-size: 8px; font-family: 'Times New Roman', 'Times', 'DejaVu Serif', serif; text-anchor: middle" x="325.582033" y="191.708613" transform="rotate(-0 325.582033 191.708613)">50</text>
     </g>
    </g>
    <g id="xtick_3">
     <g id="line2d_29">
      <path d="M 369.738862 179.661738
L 369.738862 19.453594
" clip-path="url(#p12abbaee42)" style="fill: none; stroke-dasharray: 2.035,0.88; stroke-dashoffset: 0; stroke: #d8d8d8; stroke-width: 0.55"/>
     </g>
     <g id="line2d_30">
      <g>
       <use xlink:href="#mb1782fa841" x="369.738862" y="179.661738" style="stroke: #000000; stroke-width: 0.7"/>
      </g>
     </g>
     <g id="text_23">
      <text style="font-size: 8px; font-family: 'Times New Roman', 'Times', 'DejaVu Serif', serif; text-anchor: middle" x="369.738862" y="191.708613" transform="rotate(-0 369.738862 191.708613)">100</text>
     </g>
    </g>
    <g id="xtick_4">
     <g id="line2d_31">
      <path d="M 413.895691 179.661738
L 413.895691 19.453594
" clip-path="url(#p12abbaee42)" style="fill: none; stroke-dasharray: 2.035,0.88; stroke-dashoffset: 0; stroke: #d8d8d8; stroke-width: 0.55"/>
     </g>
     <g id="line2d_32">
      <g>
       <use xlink:href="#mb1782fa841" x="413.895691" y="179.661738" style="stroke: #000000; stroke-width: 0.7"/>
      </g>
     </g>
     <g id="text_24">
      <text style="font-size: 8px; font-family: 'Times New Roman', 'Times', 'DejaVu Serif', serif; text-anchor: middle" x="413.895691" y="191.708613" transform="rotate(-0 413.895691 191.708613)">150</text>
     </g>
    </g>
    <g id="xtick_5">
     <g id="line2d_33">
      <path d="M 458.05252 179.661738
L 458.05252 19.453594
" clip-path="url(#p12abbaee42)" style="fill: none; stroke-dasharray: 2.035,0.88; stroke-dashoffset: 0; stroke: #d8d8d8; stroke-width: 0.55"/>
     </g>
     <g id="line2d_34">
      <g>
       <use xlink:href="#mb1782fa841" x="458.05252" y="179.661738" style="stroke: #000000; stroke-width: 0.7"/>
      </g>
     </g>
     <g id="text_25">
      <text style="font-size: 8px; font-family: 'Times New Roman', 'Times', 'DejaVu Serif', serif; text-anchor: middle" x="458.05252" y="191.708613" transform="rotate(-0 458.05252 191.708613)">200</text>
     </g>
    </g>
    <g id="xtick_6">
     <g id="line2d_35">
      <path d="M 502.209348 179.661738
L 502.209348 19.453594
" clip-path="url(#p12abbaee42)" style="fill: none; stroke-dasharray: 2.035,0.88; stroke-dashoffset: 0; stroke: #d8d8d8; stroke-width: 0.55"/>
     </g>
     <g id="line2d_36">
      <g>
       <use xlink:href="#mb1782fa841" x="502.209348" y="179.661738" style="stroke: #000000; stroke-width: 0.7"/>
      </g>
     </g>
     <g id="text_26">
      <text style="font-size: 8px; font-family: 'Times New Roman', 'Times', 'DejaVu Serif', serif; text-anchor: middle" x="502.209348" y="191.708613" transform="rotate(-0 502.209348 191.708613)">250</text>
     </g>
    </g>
    <g id="text_27">
     <text style="font-size: 9px; font-family: 'Times New Roman', 'Times', 'DejaVu Serif', serif; text-anchor: middle" x="386.960025" y="203.684551" transform="rotate(-0 386.960025 203.684551)">Time (s)</text>
    </g>
   </g>
   <g id="matplotlib.axis_4">
    <g id="ytick_1">
     <g id="line2d_37">
      <path d="M 270.871722 160.599011
L 503.048328 160.599011
" clip-path="url(#p12abbaee42)" style="fill: none; stroke-dasharray: 2.035,0.88; stroke-dashoffset: 0; stroke: #d8d8d8; stroke-width: 0.55"/>
     </g>
     <g id="line2d_38">
      <defs>
       <path id="m00fd536c92" d="M 0 0
L -3 0
" style="stroke: #000000; stroke-width: 0.7"/>
      </defs>
      <g>
       <use xlink:href="#m00fd536c92" x="270.871722" y="160.599011" style="stroke: #000000; stroke-width: 0.7"/>
      </g>
     </g>
     <g id="text_28">
      <text style="font-size: 8px; font-family: 'Times New Roman', 'Times', 'DejaVu Serif', serif; text-anchor: end" x="264.371722" y="163.372449" transform="rotate(-0 264.371722 163.372449)">30</text>
     </g>
    </g>
    <g id="ytick_2">
     <g id="line2d_39">
      <path d="M 270.871722 136.134771
L 503.048328 136.134771
" clip-path="url(#p12abbaee42)" style="fill: none; stroke-dasharray: 2.035,0.88; stroke-dashoffset: 0; stroke: #d8d8d8; stroke-width: 0.55"/>
     </g>
     <g id="line2d_40">
      <g>
       <use xlink:href="#m00fd536c92" x="270.871722" y="136.134771" style="stroke: #000000; stroke-width: 0.7"/>
      </g>
     </g>
     <g id="text_29">
      <text style="font-size: 8px; font-family: 'Times New Roman', 'Times', 'DejaVu Serif', serif; text-anchor: end" x="264.371722" y="138.908208" transform="rotate(-0 264.371722 138.908208)">40</text>
     </g>
    </g>
    <g id="ytick_3">
     <g id="line2d_41">
      <path d="M 270.871722 111.67053
L 503.048328 111.67053
" clip-path="url(#p12abbaee42)" style="fill: none; stroke-dasharray: 2.035,0.88; stroke-dashoffset: 0; stroke: #d8d8d8; stroke-width: 0.55"/>
     </g>
     <g id="line2d_42">
      <g>
       <use xlink:href="#m00fd536c92" x="270.871722" y="111.67053" style="stroke: #000000; stroke-width: 0.7"/>
      </g>
     </g>
     <g id="text_30">
      <text style="font-size: 8px; font-family: 'Times New Roman', 'Times', 'DejaVu Serif', serif; text-anchor: end" x="264.371722" y="114.443968" transform="rotate(-0 264.371722 114.443968)">50</text>
     </g>
    </g>
    <g id="ytick_4">
     <g id="line2d_43">
      <path d="M 270.871722 87.20629
L 503.048328 87.20629
" clip-path="url(#p12abbaee42)" style="fill: none; stroke-dasharray: 2.035,0.88; stroke-dashoffset: 0; stroke: #d8d8d8; stroke-width: 0.55"/>
     </g>
     <g id="line2d_44">
      <g>
       <use xlink:href="#m00fd536c92" x="270.871722" y="87.20629" style="stroke: #000000; stroke-width: 0.7"/>
      </g>
     </g>
     <g id="text_31">
      <text style="font-size: 8px; font-family: 'Times New Roman', 'Times', 'DejaVu Serif', serif; text-anchor: end" x="264.371722" y="89.979727" transform="rotate(-0 264.371722 89.979727)">60</text>
     </g>
    </g>
    <g id="ytick_5">
     <g id="line2d_45">
      <path d="M 270.871722 62.742049
L 503.048328 62.742049
" clip-path="url(#p12abbaee42)" style="fill: none; stroke-dasharray: 2.035,0.88; stroke-dashoffset: 0; stroke: #d8d8d8; stroke-width: 0.55"/>
     </g>
     <g id="line2d_46">
      <g>
       <use xlink:href="#m00fd536c92" x="270.871722" y="62.742049" style="stroke: #000000; stroke-width: 0.7"/>
      </g>
     </g>
     <g id="text_32">
      <text style="font-size: 8px; font-family: 'Times New Roman', 'Times', 'DejaVu Serif', serif; text-anchor: end" x="264.371722" y="65.515486" transform="rotate(-0 264.371722 65.515486)">70</text>
     </g>
    </g>
    <g id="ytick_6">
     <g id="line2d_47">
      <path d="M 270.871722 38.277808
L 503.048328 38.277808
" clip-path="url(#p12abbaee42)" style="fill: none; stroke-dasharray: 2.035,0.88; stroke-dashoffset: 0; stroke: #d8d8d8; stroke-width: 0.55"/>
     </g>
     <g id="line2d_48">
      <g>
       <use xlink:href="#m00fd536c92" x="270.871722" y="38.277808" style="stroke: #000000; stroke-width: 0.7"/>
      </g>
     </g>
     <g id="text_33">
      <text style="font-size: 8px; font-family: 'Times New Roman', 'Times', 'DejaVu Serif', serif; text-anchor: end" x="264.371722" y="41.051246" transform="rotate(-0 264.371722 41.051246)">80</text>
     </g>
    </g>
    <g id="text_34">
     <text style="font-size: 9px; font-family: 'Times New Roman', 'Times', 'DejaVu Serif', serif; text-anchor: middle" x="250.429339" y="99.557666" transform="rotate(-90 250.429339 99.557666)">Cell temperature (°C)</text>
    </g>
   </g>
   <g id="line2d_49">
    <path d="M 281.425204 172.110401
L 290.25657 169.736118
L 292.90598 169.087154
L 302.620482 167.078217
L 306.153028 166.55942
L 308.802438 166.281511
L 314.101257 165.878072
L 321.16635 165.043981
L 330.880852 163.848692
L 340.595355 162.740472
L 345.011038 162.673558
L 354.72554 162.890611
L 366.206316 163.282923
L 375.037681 163.044979
L 382.102774 163.242483
L 387.401593 163.526635
L 392.700413 164.0403
L 397.999232 164.674916
L 401.531779 164.873937
L 405.947461 165.031875
L 414.778827 165.00478
L 426.259603 164.648899
L 445.688607 164.897262
L 449.221154 164.692715
L 454.519973 164.126633
L 465.117612 163.072584
L 476.598388 162.503266
L 485.429753 162.44585
L 492.494846 162.041002
L 492.494846 162.041002
" clip-path="url(#p12abbaee42)" style="fill: none; stroke: #bdbdbd; stroke-opacity: 0.75; stroke-width: 0.55; stroke-linecap: square"/>
   </g>
   <g id="line2d_50">
    <path d="M 281.425204 172.015861
L 290.25657 169.688275
L 298.204799 167.895988
L 304.386755 166.719243
L 307.919301 166.332099
L 314.101257 165.852804
L 319.400077 165.310921
L 322.932623 164.876192
L 327.348306 164.360943
L 337.945945 162.982815
L 341.478491 162.736548
L 348.543584 162.757512
L 357.37495 162.957045
L 361.790633 163.209151
L 366.206316 163.251611
L 375.037681 163.090736
L 381.219637 163.221337
L 390.051003 163.665615
L 402.414915 164.83665
L 410.363144 165.02571
L 420.077647 164.712496
L 422.727056 164.630054
L 428.025876 164.648242
L 433.324695 164.839264
L 447.454881 164.761842
L 466.000749 162.753359
L 471.299568 162.376742
L 477.481524 162.41884
L 481.897207 162.452538
L 488.9623 162.133477
L 492.494846 161.882603
L 492.494846 161.882603
" clip-path="url(#p12abbaee42)" style="fill: none; stroke: #bdbdbd; stroke-opacity: 0.75; stroke-width: 0.55; stroke-linecap: square"/>
   </g>
   <g id="line2d_51">
    <path d="M 281.425204 172.019588
L 298.204799 168.068398
L 305.269892 166.81831
L 308.802438 166.418333
L 316.750667 165.780956
L 339.712218 162.967314
L 342.361628 162.846366
L 351.192994 162.879546
L 355.608677 162.982436
L 365.323179 163.284363
L 369.738862 163.210854
L 374.154545 163.143057
L 380.336501 163.241433
L 391.817276 163.973864
L 401.531779 164.989181
L 409.480008 165.164034
L 428.025876 164.690134
L 439.506651 164.872302
L 448.338017 164.695345
L 450.987427 164.450349
L 457.169383 163.654504
L 463.351339 163.012553
L 473.065841 162.448065
L 480.130934 162.426874
L 481.897207 162.446535
L 488.9623 161.984456
L 492.494846 161.705328
L 492.494846 161.705328
" clip-path="url(#p12abbaee42)" style="fill: none; stroke: #bdbdbd; stroke-opacity: 0.75; stroke-width: 0.55; stroke-linecap: square"/>
   </g>
   <g id="line2d_52">
    <path d="M 281.425204 172.37955
L 294.672253 168.925425
L 303.503619 167.091643
L 307.036165 166.62951
L 314.101257 166.113815
L 322.049487 165.215181
L 339.712218 162.95335
L 344.127901 162.822111
L 354.72554 163.037078
L 360.907496 163.3343
L 365.323179 163.525342
L 380.336501 163.427572
L 386.518457 163.644674
L 391.817276 164.132556
L 397.116096 164.760683
L 402.414915 165.118604
L 415.661964 165.098489
L 422.727056 164.777212
L 425.376466 164.754525
L 428.909013 164.881353
L 443.039198 164.982672
L 450.10429 164.61585
L 472.182705 162.516523
L 476.598388 162.429049
L 483.66348 162.43255
L 492.494846 161.834566
L 492.494846 161.834566
" clip-path="url(#p12abbaee42)" style="fill: none; stroke: #bdbdbd; stroke-opacity: 0.75; stroke-width: 0.55; stroke-linecap: square"/>
   </g>
   <g id="line2d_53">
    <path d="M 281.425204 172.121556
L 284.95775 171.22772
L 289.373433 170.020624
L 295.555389 168.534685
L 301.737345 167.30863
L 305.269892 166.721909
L 307.919301 166.380403
L 313.218121 165.931116
L 320.283213 165.141598
L 326.46517 164.374952
L 330.880852 163.833186
L 338.829082 162.820752
L 341.478491 162.628869
L 346.777311 162.585584
L 350.309857 162.65344
L 354.72554 162.774981
L 363.556906 163.194944
L 367.089452 163.129357
L 374.154545 162.95594
L 377.687091 162.965774
L 389.167867 163.465217
L 395.349823 164.216294
L 397.999232 164.533779
L 402.414915 164.825605
L 405.947461 164.910113
L 415.661964 164.829525
L 426.259603 164.521698
L 435.974105 164.756686
L 442.156061 164.791184
L 449.221154 164.526614
L 454.519973 163.923655
L 457.169383 163.630878
L 471.299568 162.418429
L 475.715251 162.363598
L 484.546617 162.233803
L 488.079163 161.99153
L 492.494846 161.636216
L 492.494846 161.636216
" clip-path="url(#p12abbaee42)" style="fill: none; stroke: #bdbdbd; stroke-opacity: 0.75; stroke-width: 0.55; stroke-linecap: square"/>
   </g>
   <g id="line2d_54">
    <path d="M 281.425204 172.356232
L 289.373433 170.174646
L 296.438526 168.57872
L 304.386755 167.08324
L 309.685575 166.467958
L 316.750667 165.893162
L 324.698896 164.866269
L 341.478491 162.803476
L 343.244764 162.722887
L 359.141223 163.214978
L 365.323179 163.396244
L 369.738862 163.237942
L 373.271408 163.207916
L 380.336501 163.309359
L 390.93414 163.966718
L 398.882369 164.844049
L 405.064325 165.075494
L 414.778827 165.053278
L 418.311374 164.948438
L 422.727056 164.714838
L 426.259603 164.746054
L 432.441559 164.891536
L 435.090969 164.934926
L 447.454881 164.8191
L 451.870564 164.372221
L 459.818793 163.275459
L 471.299568 162.206334
L 473.065841 162.115788
L 483.66348 162.004789
L 489.845436 161.539293
L 492.494846 161.313823
L 492.494846 161.313823
" clip-path="url(#p12abbaee42)" style="fill: none; stroke: #bdbdbd; stroke-opacity: 0.75; stroke-width: 0.55; stroke-linecap: square"/>
   </g>
   <g id="line2d_55">
    <path d="M 281.425204 172.230144
L 293.789116 168.953961
L 299.087936 167.835567
L 304.386755 166.900875
L 308.802438 166.426338
L 312.334984 166.154065
L 314.101257 166.069353
L 317.633804 165.691261
L 323.81576 164.983895
L 329.997716 164.210363
L 338.829082 163.041603
L 345.011038 162.876241
L 352.959267 163.002586
L 356.491813 163.132629
L 360.024359 163.380288
L 366.206316 163.538363
L 368.855725 163.455125
L 372.388272 163.321269
L 381.219637 163.453985
L 385.63532 163.643081
L 390.051003 164.024799
L 400.648642 165.163354
L 409.480008 165.307571
L 427.142739 164.745132
L 430.675286 164.875753
L 438.623515 164.804655
L 447.454881 164.408218
L 450.987427 163.956128
L 464.234476 161.949875
L 466.883885 161.635105
L 473.065841 160.999269
L 483.66348 160.60478
L 491.61171 159.902849
L 492.494846 159.798118
L 492.494846 159.798118
" clip-path="url(#p12abbaee42)" style="fill: none; stroke: #bdbdbd; stroke-opacity: 0.75; stroke-width: 0.55; stroke-linecap: square"/>
   </g>
   <g id="line2d_56">
    <path d="M 281.425204 172.089863
L 287.60716 170.619567
L 291.139706 169.790547
L 299.087936 168.122633
L 306.153028 166.940251
L 307.919301 166.764813
L 312.334984 166.43425
L 332.647126 164.197724
L 337.945945 163.538567
L 341.478491 163.273571
L 346.777311 163.253351
L 356.491813 163.482428
L 364.440042 163.829486
L 378.570228 163.818767
L 388.28473 164.205581
L 400.648642 165.382757
L 405.064325 165.54306
L 409.480008 165.611905
L 415.661964 165.587364
L 426.259603 165.226957
L 435.974105 165.323619
L 438.623515 165.263916
L 445.688607 165.135574
L 449.221154 164.914028
L 456.286246 163.900083
L 461.585066 163.276143
L 472.182705 162.149816
L 478.364661 161.914942
L 483.66348 161.715279
L 492.494846 160.95152
L 492.494846 160.95152
" clip-path="url(#p12abbaee42)" style="fill: none; stroke: #bdbdbd; stroke-opacity: 0.75; stroke-width: 0.55; stroke-linecap: square"/>
   </g>
   <g id="line2d_57">
    <path d="M 281.425204 172.265244
L 295.555389 168.790289
L 302.620482 167.382208
L 306.153028 166.833181
L 315.867531 165.95881
L 321.16635 165.347984
L 341.478491 162.993944
L 347.660447 162.937535
L 358.258086 163.179111
L 360.907496 163.314121
L 367.972589 163.335857
L 372.388272 163.212485
L 384.752184 163.435729
L 390.93414 163.817792
L 398.882369 164.65307
L 401.531779 164.851917
L 410.363144 165.049256
L 413.895691 165.027323
L 420.077647 164.702223
L 424.49333 164.541842
L 428.909013 164.646949
L 435.090969 164.748472
L 438.623515 164.751805
L 448.338017 164.484994
L 453.636837 163.850397
L 462.468202 162.680652
L 475.715251 161.527773
L 481.014071 161.391415
L 488.9623 160.718918
L 492.494846 160.419262
L 492.494846 160.419262
" clip-path="url(#p12abbaee42)" style="fill: none; stroke: #bdbdbd; stroke-opacity: 0.75; stroke-width: 0.55; stroke-linecap: square"/>
   </g>
   <g id="line2d_58">
    <path d="M 281.425204 172.366772
L 285.840887 171.247935
L 296.438526 168.724111
L 306.153028 166.981659
L 313.218121 166.414675
L 315.867531 166.249491
L 322.049487 165.418639
L 330.880852 164.343056
L 336.179672 163.615933
L 340.595355 163.208558
L 345.894174 163.149301
L 355.608677 163.287147
L 365.323179 163.579252
L 374.154545 163.404909
L 378.570228 163.433341
L 390.051003 163.934353
L 396.232959 164.590528
L 398.882369 164.845393
L 405.947461 165.071426
L 408.596871 165.105226
L 415.661964 165.013258
L 420.960783 164.610791
L 424.49333 164.425839
L 438.623515 164.191911
L 446.571744 163.594891
L 450.987427 163.010471
L 456.286246 161.919478
L 460.701929 160.992813
L 466.000749 160.079444
L 469.533295 159.509942
L 473.065841 158.994755
L 477.481524 158.547374
L 482.780344 158.109287
L 487.196027 157.587887
L 491.61171 156.92484
L 492.494846 156.812724
L 492.494846 156.812724
" clip-path="url(#p12abbaee42)" style="fill: none; stroke: #bdbdbd; stroke-opacity: 0.75; stroke-width: 0.55; stroke-linecap: square"/>
   </g>
   <g id="line2d_59">
    <path d="M 281.425204 172.32576
L 293.789116 168.972873
L 304.386755 166.876984
L 307.919301 166.433052
L 314.984394 165.862293
L 320.283213 165.308477
L 338.829082 163.006878
L 341.478491 162.810184
L 356.491813 162.981252
L 362.673769 163.343558
L 367.089452 163.355746
L 374.154545 163.010742
L 376.803954 162.968698
L 381.219637 162.979221
L 385.63532 163.04658
L 390.93414 163.340157
L 395.349823 163.752572
L 402.414915 164.144192
L 405.947461 164.032481
L 411.246281 163.722713
L 413.895691 163.484322
L 420.960783 162.504931
L 424.49333 161.953607
L 431.558422 161.018888
L 434.207832 160.502067
L 438.623515 159.429844
L 443.039198 158.054142
L 447.454881 156.36276
L 452.7537 153.980596
L 458.05252 151.535871
L 461.585066 150.112502
L 469.533295 147.260281
L 473.948978 146.039122
L 478.364661 145.1168
L 481.897207 144.468015
L 492.494846 142.279585
L 492.494846 142.279585
" clip-path="url(#p12abbaee42)" style="fill: none; stroke: #bdbdbd; stroke-opacity: 0.75; stroke-width: 0.55; stroke-linecap: square"/>
   </g>
   <g id="line2d_60">
    <path d="M 281.425204 172.082079
L 298.204799 168.293006
L 304.386755 167.198922
L 307.919301 166.78631
L 311.451848 166.523531
L 315.867531 166.235698
L 340.595355 163.408358
L 344.127901 163.301326
L 354.72554 163.494357
L 363.556906 163.87207
L 374.154545 163.753769
L 385.63532 163.964743
L 389.167867 164.176365
L 401.531779 165.350683
L 405.947461 165.459735
L 415.661964 165.216043
L 423.610193 164.623046
L 428.909013 164.474318
L 433.324695 164.329403
L 440.389788 163.769878
L 446.571744 163.006324
L 449.221154 162.485711
L 451.870564 161.874677
L 456.286246 160.623624
L 466.883885 157.897408
L 474.832115 156.265421
L 484.546617 154.882402
L 490.728573 153.751594
L 492.494846 153.46447
L 492.494846 153.46447
" clip-path="url(#p12abbaee42)" style="fill: none; stroke: #bdbdbd; stroke-opacity: 0.75; stroke-width: 0.55; stroke-linecap: square"/>
   </g>
   <g id="line2d_61">
    <path d="M 281.425204 171.840745
L 290.25657 169.751373
L 298.204799 168.121774
L 304.386755 166.955777
L 309.685575 166.393651
L 319.400077 165.543049
L 323.81576 165.032844
L 331.763989 164.137243
L 337.062808 163.453177
L 340.595355 163.14511
L 344.127901 163.035689
L 352.07613 163.187041
L 364.440042 163.622564
L 367.089452 163.589689
L 371.505135 163.378444
L 376.803954 163.315515
L 388.28473 163.67565
L 393.583549 164.224954
L 397.116096 164.626839
L 401.531779 164.877182
L 409.480008 164.976586
L 414.778827 164.862373
L 420.077647 164.507589
L 428.025876 164.162515
L 437.740378 163.94155
L 443.922334 163.553358
L 448.338017 163.051776
L 452.7537 162.219355
L 459.818793 160.64206
L 470.416432 158.678553
L 488.9623 156.421424
L 492.494846 155.9428
L 492.494846 155.9428
" clip-path="url(#p12abbaee42)" style="fill: none; stroke: #bdbdbd; stroke-opacity: 0.75; stroke-width: 0.55; stroke-linecap: square"/>
   </g>
   <g id="line2d_62">
    <path d="M 281.425204 172.169941
L 289.373433 170.061974
L 291.139706 169.623236
L 300.854209 167.587171
L 305.269892 166.891138
L 307.919301 166.635833
L 314.101257 166.156892
L 317.633804 165.794972
L 323.81576 164.9877
L 332.647126 163.865631
L 336.179672 163.401081
L 338.829082 163.159436
L 342.361628 163.004459
L 345.894174 163.001219
L 358.258086 163.310179
L 368.855725 163.488746
L 375.037681 163.274162
L 378.570228 163.242187
L 389.167867 163.455568
L 392.700413 163.704739
L 397.999232 164.123698
L 401.531779 164.15667
L 407.713735 163.869227
L 412.129418 163.477726
L 417.428237 162.729623
L 432.441559 159.864022
L 436.857242 158.524824
L 442.156061 156.450091
L 445.688607 154.826974
L 449.221154 152.987201
L 455.40311 149.527181
L 461.585066 146.256615
L 468.650158 143.196826
L 472.182705 141.997421
L 475.715251 140.982719
L 492.494846 136.99221
L 492.494846 136.99221
" clip-path="url(#p12abbaee42)" style="fill: none; stroke: #bdbdbd; stroke-opacity: 0.75; stroke-width: 0.55; stroke-linecap: square"/>
   </g>
   <g id="line2d_63">
    <path d="M 281.425204 172.164455
L 292.022843 169.421336
L 303.503619 167.10586
L 307.036165 166.612072
L 319.400077 165.58782
L 333.530262 163.822048
L 337.062808 163.366501
L 342.361628 162.943835
L 347.660447 162.95608
L 352.07613 163.086886
L 360.907496 163.378452
L 364.440042 163.03022
L 367.972589 162.557831
L 390.051003 158.701599
L 394.466686 157.744514
L 397.999232 156.709734
L 401.531779 155.217968
L 404.181188 153.822328
L 406.830598 152.180902
L 410.363144 149.538994
L 413.012554 147.17636
L 415.661964 144.39141
L 417.428237 142.316812
L 420.077647 138.796217
L 422.727056 134.864237
L 425.376466 130.426727
L 428.025876 125.433461
L 430.675286 119.726652
L 432.441559 115.437165
L 434.207832 110.714281
L 435.974105 105.553275
L 437.740378 99.87416
L 442.156061 84.59119
L 444.805471 76.837632
L 447.454881 70.119363
L 449.221154 66.117665
L 451.870564 60.66121
L 453.636837 57.371581
L 455.40311 54.351115
L 458.05252 50.317387
L 460.701929 46.761168
L 463.351339 43.742992
L 466.000749 41.084329
L 468.650158 38.68312
L 471.299568 36.607054
L 473.948978 34.818123
L 475.715251 33.786753
L 480.130934 31.643418
L 488.079163 28.316197
L 491.61171 27.02935
L 492.494846 26.735782
L 492.494846 26.735782
" clip-path="url(#p12abbaee42)" style="fill: none; stroke: #bdbdbd; stroke-opacity: 0.75; stroke-width: 0.55; stroke-linecap: square"/>
   </g>
   <g id="line2d_64">
    <path d="M 281.425204 172.176513
L 284.95775 171.315332
L 291.139706 169.812029
L 295.555389 168.905961
L 300.854209 167.889732
L 303.503619 167.422057
L 321.16635 165.612375
L 327.348306 164.923559
L 341.478491 163.51545
L 347.660447 163.397003
L 351.192994 163.47552
L 355.608677 163.618881
L 364.440042 163.958881
L 368.855725 163.871101
L 375.037681 163.65674
L 386.518457 163.640931
L 390.051003 163.755256
L 397.999232 164.087115
L 400.648642 164.078953
L 407.713735 163.66376
L 413.895691 162.856569
L 416.5451 162.352241
L 423.610193 160.514308
L 428.909013 158.981233
L 432.441559 157.790139
L 436.857242 155.777625
L 440.389788 153.840073
L 443.922334 151.535261
L 447.454881 148.950596
L 453.636837 144.100126
L 457.169383 141.390437
L 459.818793 139.555852
L 464.234476 136.716316
L 468.650158 134.103423
L 473.065841 131.878942
L 476.598388 130.428772
L 481.897207 128.597006
L 492.494846 125.196707
L 492.494846 125.196707
" clip-path="url(#p12abbaee42)" style="fill: none; stroke: #bdbdbd; stroke-opacity: 0.75; stroke-width: 0.55; stroke-linecap: square"/>
   </g>
   <g id="line2d_65">
    <path d="M 281.425204 172.164455
L 292.022843 169.421336
L 303.503619 167.10586
L 307.036165 166.612072
L 319.400077 165.58782
L 333.530262 163.822048
L 337.062808 163.366501
L 342.361628 162.943835
L 347.660447 162.95608
L 352.07613 163.086886
L 360.907496 163.378452
L 364.440042 163.03022
L 367.972589 162.557831
L 390.051003 158.701599
L 394.466686 157.744514
L 397.999232 156.709734
L 401.531779 155.217968
L 404.181188 153.822328
L 406.830598 152.180902
L 410.363144 149.538994
L 413.012554 147.17636
L 415.661964 144.39141
L 417.428237 142.316812
L 420.077647 138.796217
L 422.727056 134.864237
L 425.376466 130.426727
L 428.025876 125.433461
L 430.675286 119.726652
L 432.441559 115.437165
L 434.207832 110.714281
L 435.974105 105.553275
L 437.740378 99.87416
L 442.156061 84.59119
L 444.805471 76.837632
L 447.454881 70.119363
L 449.221154 66.117665
L 451.870564 60.66121
L 453.636837 57.371581
L 455.40311 54.351115
L 458.05252 50.317387
L 460.701929 46.761168
L 463.351339 43.742992
L 466.000749 41.084329
L 468.650158 38.68312
L 471.299568 36.607054
L 473.948978 34.818123
L 475.715251 33.786753
L 480.130934 31.643418
L 488.079163 28.316197
L 491.61171 27.02935
L 492.494846 26.735782
L 492.494846 26.735782
" clip-path="url(#p12abbaee42)" style="fill: none; stroke: #2a6f97; stroke-width: 1.55; stroke-linecap: square"/>
   </g>
   <g id="line2d_66">
    <path d="M 270.871722 87.20629
L 503.048328 87.20629
" clip-path="url(#p12abbaee42)" style="fill: none; stroke-dasharray: 3.33,1.44; stroke-dashoffset: 0; stroke: #000000; stroke-width: 0.9"/>
   </g>
   <g id="line2d_67">
    <path d="M 360.907496 179.661738
L 360.907496 19.453594
" clip-path="url(#p12abbaee42)" style="fill: none; stroke-dasharray: 0.9,1.485; stroke-dashoffset: 0; stroke: #000000; stroke-width: 0.9"/>
   </g>
   <g id="line2d_68">
    <path d="M 412.129418 179.661738
L 412.129418 19.453594
" clip-path="url(#p12abbaee42)" style="fill: none; stroke-dasharray: 7.04,1.76,1.1,1.76; stroke-dashoffset: 0; stroke: #2a9d8f; stroke-width: 1.1"/>
   </g>
   <g id="patch_9">
    <path d="M 270.871722 179.661738
L 270.871722 19.453594
" style="fill: none; stroke: #000000; stroke-width: 0.8; stroke-linejoin: miter; stroke-linecap: square"/>
   </g>
   <g id="patch_10">
    <path d="M 270.871722 179.661738
L 503.048328 179.661738
" style="fill: none; stroke: #000000; stroke-width: 0.8; stroke-linejoin: miter; stroke-linecap: square"/>
   </g>
   <g id="text_35">
    <text style="font-size: 9px; font-family: 'Times New Roman', 'Times', 'DejaVu Serif', serif; text-anchor: middle" x="386.960025" y="13.453594" transform="rotate(-0 386.960025 13.453594)">(b) Representative fault trajectory</text>
   </g>
   <g id="legend_2">
    <g id="patch_11">
     <path d="M 274.671722 68.574531
L 370.291597 68.574531
L 370.291597 23.253594
L 274.671722 23.253594
z
" style="fill: #ffffff; opacity: 0.8; stroke: #000000; stroke-linejoin: miter"/>
    </g>
    <g id="line2d_69">
     <path d="M 277.711722 28.953594
L 285.311722 28.953594
L 292.911722 28.953594
" style="fill: none; stroke: #2a6f97; stroke-width: 1.55; stroke-linecap: square"/>
    </g>
    <g id="text_36">
     <text style="font-size: 7.6px; font-family: 'Times New Roman', 'Times', 'DejaVu Serif', serif; text-anchor: start" x="298.991722" y="31.613594" transform="rotate(-0 298.991722 31.613594)">Fault-cell temperature</text>
    </g>
    <g id="line2d_70">
     <path d="M 277.711722 39.713828
L 285.311722 39.713828
L 292.911722 39.713828
" style="fill: none; stroke-dasharray: 3.33,1.44; stroke-dashoffset: 0; stroke: #000000; stroke-width: 0.9"/>
    </g>
    <g id="text_37">
     <text style="font-size: 7.6px; font-family: 'Times New Roman', 'Times', 'DejaVu Serif', serif; text-anchor: start" x="298.991722" y="42.373828" transform="rotate(-0 298.991722 42.373828)">60 °C safety boundary</text>
    </g>
    <g id="line2d_71">
     <path d="M 277.711722 50.474063
L 285.311722 50.474063
L 292.911722 50.474063
" style="fill: none; stroke-dasharray: 0.9,1.485; stroke-dashoffset: 0; stroke: #000000; stroke-width: 0.9"/>
    </g>
    <g id="text_38">
     <text style="font-size: 7.6px; font-family: 'Times New Roman', 'Times', 'DejaVu Serif', serif; text-anchor: start" x="298.991722" y="53.134063" transform="rotate(-0 298.991722 53.134063)">Fault onset</text>
    </g>
    <g id="line2d_72">
     <path d="M 277.711722 61.234297
L 285.311722 61.234297
L 292.911722 61.234297
" style="fill: none; stroke-dasharray: 7.04,1.76,1.1,1.76; stroke-dashoffset: 0; stroke: #2a9d8f; stroke-width: 1.1"/>
    </g>
    <g id="text_39">
     <text style="font-size: 7.6px; font-family: 'Times New Roman', 'Times', 'DejaVu Serif', serif; text-anchor: start" x="298.991722" y="63.894297" transform="rotate(-0 298.991722 63.894297)">Graph-CUSUM alarm</text>
    </g>
   </g>
  </g>
 </g>
 <defs>
  <clipPath id="pdc6781cce0">
   <rect x="47.973604" y="19.453594" width="140.983167" height="160.208145"/>
  </clipPath>
  <clipPath id="p12abbaee42">
   <rect x="270.871722" y="19.453594" width="232.176606" height="160.208145"/>
  </clipPath>
 </defs>
</svg>
